<?xml version="1.0" encoding="UTF-8"?>
<svg viewBox="0 0 437.5 437.5" xmlns="http://www.w3.org/2000/svg" xmlns:xlink="http://www.w3.org/1999/xlink">
 <defs>
  <linearGradient id="a">
   <stop stop-color="#ea7f00" offset="0"/>
   <stop stop-color="#e2d247" offset="1"/>
  </linearGradient>
  <linearGradient id="d" x1=".43101" x2=".63267" y1=".97714" y2=".85143" xlink:href="#a"/>
  <linearGradient id="c" x1=".56373" x2=".37833" y1=".75429" y2=".65714" xlink:href="#a"/>
  <linearGradient id="b" x1=".51254" x2=".48244" y1=".72571" y2="-.15429" xlink:href="#a"/>
 </defs>
 <path d="m39.127 325.42c2.7652 15.582-14.216 17.748-16.382 24.245 15.308 11.025-24.446 27.825-17.037 32.764 5.2604 4.603 83.471 36.124 96.325 37.35 78.711 15.182 242.05 4.331 271.94-9.829 35.815-20.16 53.926-22.346 59.627-32.108-3.375-8.095-35.034-23.199-28.175-29.487-5.715-7.143-30.348-6.403-24.901-21.624-17.264-4.933-3.372-0.032-15.726-9.174-4.616-1.154-5.819-11.14-10.485-11.14-42.088-28.252-247.46-19.002-290.94 4.588-6.202 12.333-16.999 12-24.245 14.415z" fill="#42aa44" fill-rule="evenodd"/>
 <path d="m53.738 334.88c11.368-9.692 134-237.82 135.87-237.82 3.843-5.7644 8.266-18.614 14.082-24.43 3.015-3.0153 3.884-6.4661 6.436-9.8682 1.922-0.9613 3.133-9.8116 5.28-5.5163 4.837 16.122 15.216 16.766 18.505 33.213 4.876 12.191 110.13 214.74 115.33 218.2 7.684 11.525 17.722 20.998 27.522 30.798 3.028 2.524 5.739 5.083 8.518 7.863 1.75 1.75 0.568 0-1.31 0-5.724 0-97.181-35.074-128.43-36.695-6.687 0-72.253-6.311-157.92 9.829-2.497 0.713-9.627 1.763-12.45 4.587-2.784 0-34.355 12.769-31.425 9.839z" fill="url(#b)" fill-rule="evenodd" stroke="#000" stroke-width="6.25"/>
 <path d="m194.99 137.11c4.233-6.7725 21.124-72.281 23.062-80.034 9.252-16.02 25.293-34.728 21.664-49.743" fill="none" stroke="#734c14" stroke-width="7.3"/>
 <path d="m229.02 88.007c0-7.6151-20.916-40.122-20.916-47.844-0.9494-1.9401 8.7267-30.595 7.2843-30.595" fill="none" stroke="#000" stroke-width="7.6472"/>
 <path d="m226.53 78.427c-1.566-3.6533-2.632-9.8342-6.553-11.795-1.381-2.0717-5.898-7.3052-6.553-7.8633-3.479-1.7399-3.407-6.9457-6.552-8.5185-0.747-2.2401 0-2.4642-2.621-3.9316-6.4959-5.8593-12.451-7.2843-13.106-9.8291-3.326-1.0077-6.363-8.5184-8.518-8.5184" fill="none" stroke="#735c26" stroke-width="6"/>
 <path d="m180.83 305.8c0.7685-8.4235 2.0419-9.7779 4.3154-16.712 4.4962-8.9221 3.9287-11.822 4.6641-19.883 0.6305-6.9122 0.5504-13.839 1.1968-20.924 0.4948-5.4237 1.6505-10.288 2.1498-15.76-1.0187-6.7493-1.0073-12.982 1.7718-19.422 2.5844-7.5016 3.5-14.94 4.2193-22.825-1.1826-6.4029 0.8555-9.3775 1.4437-15.825 1.5436-2.8965 2.055-9.0425 4.5827-11.187 2.3212-3.8063 2.1745-8.2148 2.5945-12.819 0.3942-4.3205 1.4761-8.3757 1.8873-12.883 0.2751-3.0153-1.5756-5.9635 0.7229-7.9127 0.4509-4.9431 1.565-9.3504 2.0186-14.322l1.0499-11.508c0.6568-7.2002-0.1897-11.889-1.8266-19.025 0.3181-3.4877 0.3748-9.609 3.235-12.035 0.5899-6.467 2.512-11.915 3.1194-18.573 0.2094-2.2954 0.5267-4.1539-0.8883-5.8836-1.45-3.7874-2.2971-6.0516-1.8413-11.048 1.223-2.8351 1.1699-6.3018 3.6131-8.3741 1.4883-3.4489 5.3086-4.7483 5.6452-8.4381 5.521-1.7686 5.146-11.4 5.4248-11.858" fill="none" stroke="#735d27" stroke-linecap="round" stroke-width="6.1854"/>
 <path d="m199.94 99.531c4.1595-5.4319 6.3195-9.2347 12.109-13.555 2.7403-8.1778 7.3451-15.543 10.898-23.496 1.8072-5.3975 5.8428-5.6783 8.1193-10.776 0-3.1852 5.6968-3.3901 5.6968-6.5743 1.2362-2.7661 4.7729-4.0143 8.1193-5.2635 0-2.8862 8.4186-11.678 8.4186-14.438" fill="none" stroke="#63260c" stroke-width="10.855"/>
 <path d="m252.14 305.1c-0.7685-8.4235-2.7186-6.3941-2.9619-15.359-4.4961-8.9221-3.9286-11.822-4.664-19.883-0.6306-6.9122-0.5505-13.839-1.1968-20.924-0.4948-5.4237-1.6506-10.288-2.1498-15.76 1.0187-6.7493 1.0072-12.982-1.7718-19.422-2.5845-7.5016-3.5001-14.94-4.2194-22.825 1.1826-6.4029-0.8555-9.3775-1.4436-15.825-1.5436-2.8965-2.0551-9.0425-4.5828-11.187-2.3212-3.8063-2.1745-8.2148-2.5945-12.819-0.3941-4.3205-1.4761-8.3757-1.8873-12.883-0.275-3.0153 1.5757-5.9635-0.7228-7.9127-0.451-4.9431-1.5651-9.3505-2.0186-14.322l-1.0499-11.508c-0.6569-7.2002 0.1897-11.889 1.8266-19.025-0.3182-3.4877-0.3749-9.609-3.235-12.035-0.59-6.467-2.5121-11.915-3.1195-18.573-0.2094-2.2954-0.5267-4.1539 0.8883-5.8836 1.45-3.7874-6.221-2.12-6.6767-7.116-4.4996-4.1456-2.4807-4.9912-4.9236-9.0293-1.4883-3.449-5.3091-3.4378-2.3695-9.0934-5.5213-2.4237-5.1464-7.4687-5.4252-7.9268" fill="none" stroke="#735d27" stroke-linecap="round" stroke-width="6.1854"/>
 <path d="m154.13 313.29c4.391 5.374-1.627 83.888 3.931 89.446 63.616-13.288 82.948-22.008 117.95 2.948 4.032-6.048 8.287-88.038 1e-3 -92.393-12.812-3.932-70.878-7.972-121.88-1e-3z" fill-opacity=".2266" fill-rule="evenodd"/>
 <path d="m39.049 346.32c0 2.647 23.897 66.222 123.24 58.274-1.665-85.73 1.176-118.23 3.703-128.34 8.518-15.484 27.176-101.48 29.259-115.7 2.344-10.551 10.181-45.305 10.181-51.806 1.058-4.231 6.857-44.103 6.857-49.458-35.306-12.709-43.095-6.5514-12.958 12.08-7.443 8.666-71.726 129.17-79.341 146.02-2.383 12.568-71.3 125.88-80.944 128.92z" fill="url(#c)" fill-rule="evenodd" stroke="#000" stroke-linejoin="round" stroke-width="6.25"/>
 <path d="m274.69 404.92c72.399 1.759 106.94-21.748 111.04-56.426-9.29-11.051-83.584-125.02-87.474-140.02-5.719-12.663-38.168-71.565-41.196-71.565-4.663-6.349-26.97-57.487-28.147-63.906 5.762-6.9815 27.303-18.781 27.303-20.488-1.585-1.5849-26.374 3.6051-26.374 6.8835-11.805 8.4923-16.248 10.809-13.312 16.147 1.153 4.6097 3.878 7.9779 6.094 12.411 2.795 9.783 3.881 31.7 3.881 37.037 1.923 5.769 38.351 120.27 38.351 142.77 0 21.624 15.907 76.171 9.829 137.16z" fill="url(#d)" fill-rule="evenodd" stroke="#000" stroke-linejoin="round" stroke-width="6.25"/>
</svg>
