<?xml version="1.0" encoding="UTF-8"?>
<svg viewBox="0 0 685.82135 535.89929" xmlns="http://www.w3.org/2000/svg" xmlns:xlink="http://www.w3.org/1999/xlink">
 <defs>
  <linearGradient id="a">
   <stop stop-color="#e78542" offset="0"/>
   <stop stop-color="#b85b41" offset="1"/>
  </linearGradient>
  <linearGradient id="e" x1="306.42" x2="300.64" y1="592.57" y2="764.57" gradientUnits="userSpaceOnUse">
   <stop stop-color="#b85b41" offset="0"/>
   <stop stop-color="#1a1a1a" offset="1"/>
  </linearGradient>
  <linearGradient id="b" x1="317.87" x2="331.66" y1="644.14" y2="736.12" gradientUnits="userSpaceOnUse">
   <stop stop-color="#be6041" offset="0"/>
   <stop stop-color="#4d4d4d" offset="1"/>
  </linearGradient>
  <linearGradient id="d" x1="404.61" x2="209.49" y1="426.18" y2="675.28" gradientUnits="userSpaceOnUse" xlink:href="#a"/>
  <linearGradient id="c" x1="247.87" x2="318.11" y1="452.19" y2="632.35" gradientUnits="userSpaceOnUse" xlink:href="#a"/>
 </defs>
 <g transform="translate(40.054 -401.56)">
  <path d="m237.72 925.5s-7.3582-22.995-15.636-25.754-15.636-16.556-15.636-16.556 16.556 1.8396 19.315 9.1978 19.315 18.396 19.315 18.396-13.797-27.593-19.315-30.353 11.037 0.91978 11.037 0.91978l51.508 33.112 81.861-5.5187s22.995-6.4385 30.353-14.716 26.674-11.957 26.674-11.957 3.6791 7.3582-5.5187 10.118-23.914 11.957-26.674 15.636 7.3582 1.8396 15.636-2.7593 16.556-5.5187 21.155-5.5187 7.3582 3.6791 0.91978 4.5989-29.433 10.118-34.952 12.877-20.235 8.278-20.235 8.278-102.1-8.278-107.61-8.278-32.192 8.278-32.192 8.278z" fill="#666"/>
  <path d="m207.22 655.18c0.59021 11.394-12.426 24.489 2.0903 34.142 9.6141 5.1331 4.943 12.647 4.1806 19.51l11.148 99.638 14.632 85.006 146.32 16.026 23.69-159.56c1.0885-9.673-6.6291-17.899-1.3935-28.568 6.2942-9.1777-4.2678-13.485 2.0903-29.961 1.9986-2.6304 4.4197-6.6492 0-11.148-2.7801-5.0588-6.0293-10.066-0.69678-16.026 9.8186-10.54 0.46601-15.329 0.69678-22.993z" fill="url(#b)"/>
  <path d="m235.09 672.6c-5.5742 1.3936-16.723-6.2709-20.903-6.2709s-2.0903-2.0903-11.148 0-13.239 1.3935-14.632-2.0903 2.0903-15.329 0-15.329-8.3612-5.5742-12.542-4.8774-8.3613-0.69678-12.542-4.1806-6.271-17.419-9.058-21.6-16.723-2.7871-19.51-4.8774-10.452-16.026-8.3612-19.51-2.7871-2.7871-3.4839-6.9677 1.3935-6.9677 2.0903-9.7548-2.7871-6.2709-3.4839-14.632 2.0903-19.51 5.5742-24.387 9.058-15.329 4.8774-16.723-11.148-11.845-6.9677-18.813 16.026-19.51 19.51-20.903 8.3613 1.3935 3.4839-5.5742-12.542-17.419-6.271-18.813 4.8774-11.148 13.239-14.632 8.3613-4.1806 13.935-4.1806 10.452 7.6645 13.239 6.2709 7.6645-9.7548 11.845-11.845 6.9677-3.4839 9.7548-1.3936 11.148 2.0903 11.148 2.0903 1.3936-8.3612 4.8774-9.7548 2.7871 0 7.6645 0 6.9677-8.3612 11.845-8.3612 5.5742 2.0903 11.845 0.69677 16.026-8.3613 20.206-7.6645 5.5742 9.058 9.7548 9.058 18.116-4.8774 21.6-6.271 8.3613-2.7871 13.239-2.0903 4.1806 6.271 11.845 2.7871 10.452-1.3935 15.329-0.69678 2.7871 9.058 11.845 4.8774 2.0903-14.632 16.026-14.632 18.813 8.3613 18.813 8.3613-1.3935 3.4839 7.6645 2.7871 11.845 2.0903 11.845 2.0903 6.9677 9.058 13.239 10.452 14.632-2.7871 18.813-1.3936 12.542 11.148 12.542 11.148 4.8774 3.4839 0 9.058-1.3935 4.8774 3.4839 7.6645 17.419 3.4838 19.51 9.7548-1.3935 6.271 0.69678 13.935 13.935 9.7548 15.329 15.329-2.0903 14.632-2.7871 18.813-6.9677 2.0903-7.6645 5.5742-4.8774 6.9677 1.3935 10.452 22.993 0.69678 13.239 8.3613-4.8774 11.845-3.4839 15.329 5.5742 11.845 6.271 16.723-1.3935 4.1806-4.8774 7.6645-3.4839 11.845-4.1806 16.026 1.3935 9.058-6.271 12.542-3.4839 0.69678-6.271 8.3613-1.3935 6.9677-6.9677 9.7548-22.297 9.7548-26.477 9.7548-4.8774 2.7871-6.2709 9.058-4.1806 6.9677-8.3613 7.6645-7.6645-2.7871-11.148 2.0903 0 6.9677-13.239 6.271-29.961-6.271-29.961-6.271-10.452 6.271-22.297 9.7548-15.329-3.4839-22.297-3.4839-10.452-1.3936-13.239 1.3935-8.3613-2.0903-11.148 4.1806 0 11.845-7.6645 11.845-9.058 2.0903-12.542-0.69676-7.6645-4.1806-17.419-3.4839-11.148-4.1806-13.239-9.058-10.452-4.1806-13.239 0 2.7871 9.058 0 11.845-3.4839 0-7.6645 1.3935z" fill="url(#c)"/>
  <path d="m379.91 405.35-3.9231 2.6297c-3.9023 0.65038-2.5962-1.966-8.4497 2.5866s-7.803 13.019-7.803 13.019l-6.5097-0.64666s-7.7881-7.7956-10.39-9.0963-5.2015 0-7.803 0c-1.7601 0-4.6125 0.84491-6.3372 1.4226 0.16259-0.3252-0.83614-0.77227-5.3888-1.4226-9.1054-1.3008-7.7807-3.938-11.683-1.3364s-8.472 3.2652-4.5697 5.2164 5.2015 3.8986 7.803 0.64666-0.669-3.8837 3.2333-3.2333 3.2785 5.8199 10.433 5.8199 12.373-4.5266 12.373-4.5266 5.837 5.2052 10.39 7.1564 9.743 1.3141 9.743 5.2164-2.6053 8.4459 0.64666 9.0963 4.5586 3.2274 6.5097-3.2764-3.9172-7.1303 2.5866-11.683 9.1453-9.7616 15.649-6.5097 5.1791 3.897 11.683 8.4497 14.956 9.7616 15.606 6.5097 2.6202-6.4911-3.2333-9.743-6.5118-8.4534-13.666-7.803-13.012 2.5659-14.313-1.3364-2.5866-7.1564-2.5866-7.1564zm-113.04 5.0439c-1.8673 0.019-3.5534 0.60343-5.9924 3.4488-3.9023 4.5527-3.9044 4.5266-7.1564 4.5266s-4.5548 0.65411-7.1564-0.64666-8.4422-3.2519-9.743 0-1.3215 8.4497-3.9231 8.4497h-5.863s-4.5229-5.8572-5.1733 0.64666 1.2688 6.4948-1.9831 9.0963-6.4666 2.6297-6.4666 2.6297-2.6111-5.2164-5.863-5.2164-8.4816 1.94-10.433 1.94-5.8407 0.017-9.743 4.5697-1.9251 8.4497-4.5266 8.4497-3.0924 2.1848-5.0436-0.41671 1.1623-4.8896-2.687-6.9264c-11.294-5.9763-18.987-0.38563-21.182 1.8676-5.174 5.3122-7.5551 5.0129-7.2299 6.5529 0.48845 2.313 3.4106 4.8392 0.15872 5.4896s-8.2701-0.72997-4.3678 3.8227-2.9218 7.0372-2.2714 10.289 1.667 1.5441 4.2685 5.4464 5.6784 3.8252 6.826 5.4031c4.6222 6.3556 11.35 7.483 4.1962 8.1334s-8.4742 0-11.726 0-2.6037-1.2838-7.1564 4.5697-4.5192 3.9007-5.8199 7.803-3.9305 0.65997-2.6298 5.863-3.906 6.4948 0.64666 9.0963 8.4891 0.63176 9.1394 3.2333-1.9586-0.62962 1.2933 3.9231 7.7822 0.01 3.88 5.863-5.8311 5.837-3.88 10.39 1.9288 4.5527 3.88 0 4.5511-9.0963 7.803-9.0963 9.1224-0.0171 4.5697-4.5697 0.64825-0.64879-7.1564-7.803-16.254-16.907-8.4497-15.606 7.1452 11.696 9.0963 1.94 0.01-7.134 5.863-11.036 1.9421-6.5022 9.0963-7.803 13.651-3.2445 16.253-1.2933 1.3104 2.5904 5.863 1.94 9.743-5.1978 9.743-8.4497 7.835-2.5866 9.7861-2.5866 7.7807 2.5733 11.683-2.6298 3.9231-7.1564 3.9231-7.1564-0.0373-3.2615 6.4666-5.863 5.2409 1.9772 8.4928-4.5266 2.5792 1.949 3.88-7.1564-7.8158-9.1245 1.94-11.726 18.221-9.0756 20.822-5.1733-3.2349 11.062 4.5697 6.5097 9.0814-5.2089 11.683-6.5097 4.5474 3.9098 8.4497-1.2933 0.65997-6.5134 5.863-5.863 7.803-1.9831 7.803-1.9831c-4.5527-3.9023-6.5118-7.1356-13.666-3.2333s-8.4385 7.803-10.39 7.803 0.66528-2.6074-2.5866-6.5097-0.0207-8.4497-3.9231-8.4497c-1.4634 0-2.6302-0.18387-3.7506-0.17244zm77.168 15.39c-1.2093-0.061-2.8538 0.0628-5.1302 0.38799-9.1054 1.3008-13.642-1.9623-10.39 1.94s5.863 8.4928 5.863 8.4928-0.0171 2.5829-4.5697 3.2333-11.715-0.64666-13.666-0.64666-12.352-1.9586-8.4497 1.2933 9.7802 6.5022 3.2764 7.803-8.4555 1.2859-14.959 2.5866-9.76 3.2764-14.313 3.2764-9.1246-5.8572-11.726 0.64666-1.94 9.743-1.94 9.743 5.8572 0.68232-0.64666 1.9831-4.5756-7e-3 -11.079 1.2933-11.683-1.3306-11.683 5.1733 1.9229 6.4985-2.6298 8.4497-7.1489 0.66742-8.4497 4.5697-0.65625 2.5978-6.5097 0.64666-6.4911-10.419-9.743-5.2164-8.4667 5.863-13.019 5.863-7.1489-4.5527-8.4497 0 1.2986 5.2015-7.1564 7.803-9.7393-2.577-10.39 3.2764 2.5808 1.9421-3.9231 9.0963-7.7674 0.64508-6.4666 8.4497-2.6202 9.1246 3.2333 11.726 7.803 6.4889 7.803 2.5866-5.8534-1.2992 0-7.803 4.5474-3.9044 8.4497-7.1564 10.419-6e-3 5.2164-6.5097-7.7972-6.4985-1.2933-8.4497 4.525 1.28 12.33-3.9231 9.7467-9.726 9.0963-5.1733 0 3.2392 0 9.743-2.5696 3.2748 1.9831 11.079 3.8933 13.645 9.0963 9.743 6.5209-4.5511 4.5697-7.803-4.5697-5.1903-4.5697-9.743-12.371-7.1808-5.2164-10.433 6.5193-8.4513 12.373-0.64666-1.9416 7.8275 5.863 11.079 8.4422-0.0298 9.743 5.1733 0.63176 6.4964 3.2333 1.2933-0.64666-10.39-0.64666-10.39-1.297-9.1208-0.64666-12.373 8.4816-7.1564 10.433-7.1564 8.4497-0.64666 8.4497-0.64666 1.9533-6.4873 7.1564-10.39 12.354-6.5097 15.606-6.5097 11.711 4.549 14.313 0.64666-6.5262-3.2615 3.88-5.863 20.836 7.1675 26.039 5.2164 3.8784-5.8423 11.683-1.94 14.313 4.5266 14.313 4.5266-0.64293-7.1452-1.2933-9.0963 0.6674-3.8911 4.5697-1.94 9.7393 6.4889 10.39 2.5866 8.4662-3.2503-1.94-7.803-11.704-3.9007-15.606-7.803-3.2578-7.134-6.5097-11.036c-2.4389-2.9267-2.3213-4.7748-5.9493-4.9577z" fill="#d69c74"/>
  <path d="m255.99 537.85s-4.5527 9.1054 3.9023 13.008 26.015 5.8534 26.015 5.8534v-7.8046l9.1054 3.9023s5.8534 7.1542 8.455 6.5038 18.211 8.455 22.763 9.1054 11.057 4.5527 18.861 1.3008 11.707-6.5038 12.357-9.7558-4.5527-4.5527 0.65038-5.2031 4.5527 1.3008 8.455-1.3008 13.658-14.959 13.658-14.959 1.3008-3.9023 2.6015-8.455-0.65038-13.008-2.6015-14.959-4.5527-3.9023 1.9512-1.3008 15.609 6.5038 15.609 6.5038-1.3008 0.65038 1.3008-4.5527 0.65039-7.8046 4.5527-2.6015-0.65039 10.406 7.1542 11.707 11.057 6.5038 16.26 3.9023 8.455 1.3008 5.8534-6.5038-6.5038-9.7558-1.3008-11.057 3.9023 1.9512 11.057-2.6015 11.707-3.2519 9.1054-7.1542-4.5527-1.3008-4.5527-6.5038 4.5527-4.5527 7.8046-5.2031 9.7558-5.8534 12.357 3.2519-7.1542 11.707-0.65038 15.609 9.7558 1.3008 7.8046 7.8046 5.2031 12.357-3.9023 13.658-13.008-5.2031-14.308 2.6015-7.1542 13.658-7.1542 13.658-0.65038 1.9512 0.65038 5.8534 3.9023 8.455-3.2519 1.3008-8.455-15.609-11.057-9.1054 0.65038 6.5038-1.9512 14.308-4.5527 9.7558-9.7558 9.7558-7.1542-3.9023-11.707 0-9.1054 5.8534-9.7558 1.3008 5.2031-9.7558-0.65038-9.7558-11.057-3.2519-9.1054 2.6015 8.455 5.2031 5.2031 9.7558-1.9512 5.8534-7.8046 7.1542-6.5038-7.1542-9.7558 1.9512-0.65039 10.406-7.1542 11.057-6.5038 0-11.057 0-9.7558-1.3008-13.008 3.9023-5.8534 7.1542-7.8046 7.8046-5.2031 1.3008-9.1054-0.65039-5.2031-5.8534-14.959-1.9512-13.658 9.7558-17.56 4.5527 0.65039-0.65039-5.8534-8.455-13.658-11.707-13.658-11.707 5.8534-1.3008-6.5038 1.3008-24.715-1.9512-21.463-3.9023 8.455-9.1054 3.2519-1.9512-14.308 5.8534-17.56 7.8046-5.8534 4.5527-8.455 9.7558-5.8534 9.7558-10.406 7.8046-3.9023-12.357-9.7558-5.2031-8.455 6.5038-9.1054 10.406 1.9512 8.455-3.2519 9.1054-13.658-1.9512-18.211-5.2031-14.308-5.2031-13.008-16.26 3.2519-13.008-1.3008-14.308-1.3008 0-7.1542-3.9023-6.5038-1.9512-7.1542-9.1054-7.1542-7.1542-0.65039-9.1054 4.5527-7.8046 4.5527-7.8046 2.6015-3.9023 6.5038 1.9512 3.2519 1.3008 4.5527 10.406 7.1542 10.406 7.1542 10.406c10.406 3.9023 14.308 9.7558 21.463 5.8534s13.008-11.707 12.357-4.5527-3.2519 12.357 6.5038 9.1054 16.91-1.3008 18.211-6.5038 3.2519-3.2519 2.6015-9.1054 1.9512-8.455-3.9023-10.406-4.5527 0-8.455-3.2519-9.7558-4.5527-7.1542-7.8046 6.5038-1.3008 3.9023-6.5038-3.9023-4.5527-5.8535-8.455-5.8534-1.3008-1.3008-7.1542 1.3008-13.658 4.5527-5.8534 3.9023 9.7558 5.2031 16.26 1.3008 13.658 3.9023 14.308 2.6015 2.6015 11.707 7.1542 15.609 12.357 19.512 9.1054 10.406 1.3008 4.5527-6.5038-9.1054-9.7558-8.455-12.357 4.5527-13.658 4.5527-13.658z" fill="#333"/>
  <path d="m143.15 579.02s-7.1542 10.406-8.455 13.658-5.8534 3.9023-5.8534 3.9023 3.9023 4.5527 5.2031 8.455-3.2519 5.8534 2.6015 6.5038 13.658-1.9512 16.26-1.9512 5.2031 0.65038 5.2031 2.6015-1.9512 6.5038-1.9512 6.5038 3.2519 13.658 5.2031 16.26 0 3.2519 4.5527 3.2519 4.5527-1.3008 7.1542 1.3008 0 3.9023 5.2031 2.6016 10.406-1.9512 10.406-1.9512l7.1542 15.609s-4.5527 0.65038-2.6015 4.5527 1.9512 5.2031 5.8534 4.5527 4.5527-3.9023 10.406-1.9512 19.512 8.455 22.113 8.455 10.406 1.9512 9.7558-1.3008-5.2031-2.6015-2.6015-8.455 20.812-14.308 23.414-13.008 3.2519 4.5527 7.1542 5.8534 6.5038 1.3008 14.308-1.3008 3.2519-5.8534 11.707-2.6015 20.162 4.5527 20.162 4.5527 9.1054-0.65039 12.357-3.9023 5.8534-5.2031 6.5038-7.8046 2.6015-9.1054 5.2031-1.3008-5.8534 7.1542 1.9512 9.7558 18.861 2.6015 21.463 2.6015 1.3008-0.65038 9.1054 0.65039 13.658-1.3008 16.26-2.6015 7.8046 2.6015 13.008 2.6015 9.7558-2.6015 11.707-3.9023 3.9023-3.9023 5.2031-7.1542 0-7.1542 5.2031-4.5527-1.3008 6.5038 7.1542 4.5527 10.406-8.455 7.8046-8.455-7.8046 1.9512-3.2519-3.2519 18.211-7.1542 18.211-7.1542 3.2519 2.6015 11.057-1.3008 9.7558-7.1542 10.406-9.7558-0.65039-6.5038-0.65039-6.5038-5.8534 0.65038 0-3.9023 9.1054-0.65038 11.707-4.5527 1.9512-3.9023 2.6015-8.455-2.6015-9.1054-1.3008-11.707 2.6015-1.3008 4.5527-5.2031 2.6015-4.5527 1.9512-7.8046 1.3008-6.5038-5.8534-9.1054-9.1054-9.1054-9.7558-11.707-2.6015-3.2519-5.8534-2.6015-11.057 13.008-4.5527 13.008 8.455-0.65038 8.455 3.2519 9.1054 7.8046 0 11.057-12.357 3.9023-12.357 3.9023-3.2519 9.1054-3.2519 11.707 5.2031 9.7558-0.65038 11.707-3.9023 1.9512-10.406 2.6015-6.5038-0.65038-11.057-1.9512-12.357-5.2031-15.609-5.2031-8.455 0-11.057 2.6015-6.5038 8.455-1.9512 8.455 10.406 1.9512 8.455 5.2031 0.65038 7.1542-4.5527 7.8046-13.008 3.9023-12.357-1.9512 0-7.1542-3.2519-7.1542-12.357-2.6015-9.1054 4.5527 5.8534 11.057 1.3008 11.057-4.5527 7.1542-7.8046-1.3008-27.316-18.861-27.316-18.861l-6.5038 6.5038s-2.6015 8.455-5.8534 8.455-1.3008-1.3008-7.1542-5.2031-9.1054-7.1542-11.057-3.2519-1.9512 3.9023-5.8534 7.8046-2.6015 9.7558-12.357 11.057-14.959 1.9512-14.959 1.9512-1.9512 1.9512-4.5527-3.9023-4.5527-11.057-15.609-13.008-14.308-6.5038-16.26-0.65038 1.3008 3.2519-3.2519 9.1054-10.406 7.1542-10.406 7.1542-5.8534 0.65038-3.2519-5.8534 5.8534-11.707 1.3008-12.357-1.9512-6.5038-7.8046-0.65039-9.7558 1.9512-7.1542 9.1054 4.5527 8.455 0 9.1054-7.1542 2.6015-12.357 0.65038-12.357 2.6015-14.959-3.9023-2.6015-9.7558-2.6015-9.7558 1.3008-2.6015-5.2031-1.3008-6.5038 3.9023-11.707 3.9023-16.26 3.2519-9.7558-1.9512 9.7558-5.2031 7.1542-7.1542-0.65038-1.3008-9.1054-5.2031-13.658 0-14.959-5.2031 0.65038-5.2031 0.65038-9.7558-5.8534-1.9512-7.8046-5.8534-0.65038-3.9023-0.65038-3.9023z" fill="#333"/>
  <path d="m380.04 417.33c-8.2604-1.7725-25.734 11.154-22.338 14.036 8.128 1.1679 18.17 16.375 11.43-0.0683-6.6709-13.473 25.283-13.293 11.291-0.47622-11.067 9.1328 18.34 8.0398 8.8872 20.026 7.6077 7.5532 10.379-14.974 19.982-4.1716 5.2578 8.1662 8.6397 25.785 16.988 12.514 7.852 1.1608 15.698 11.219 16.611 9.4817 8.5441-6.228 15.009 8.1692 19.099 12.677-8.6913 4.6777-6.1602 12.188 3.7543 8.7083 11.8 1.583 2.7821 21.593-8.2234 21.711-5.412 2.236 7.5405 11.774 1.5945 18.8-0.20739 13.543 5.2601 2.4393 10.811-0.11616 6.062 1.3267 16.151-0.14062 4.4475-3.2026-13.868-4.726-5.4532-15.763 1.8036-21.888 7.0361-11.709-6.0319-23.333-14.23-30.501 5.82-18.294-21.169-8.3535-24.785-16.877 2.4937-13.457-22.541 9.7578-22.299-7.997 1.094-18.205-16.952-6.7434-25.755-10.198 6.868-12.524 11.138-23.211-9.0674-22.459zm-86.394 7.6306c-14.579-1.8085-13.007 12.904-19.951 18.811-10.135 4.038-3.3937-15.63-15.625-10.375-13.273 0.37375-28.004 11.005-32.828 22.674 3.1611 12.483-6.8375 15.395-16.454 11.857-9.5177 0.7008-18.692 23.761-5.0286 10.275 1.9323-5.3897 17.222-8.1538 12.252-0.69032 3.1776 0.98569 7.4834-7.0714 13.528-2.1119 12.884-0.95988-9.0291-25.372 9.6818-22.022 10.67 4.2236 9.3121-0.5251 7.3566-8.8778 5.5844-12.543 22.522 0.5109 20.74 11.122 7.8009-2.8184 11.058-13.769 21.412-13.676 8.4316-4.4747-16.559-7.1138-2.748-11.962 11.972-6.2098 15.462 8.722 22.592 11.072 5.6042-4.4232 24.07-5.0028 7.4014-8.2733-8.8149-1.2468-12.178-9.8264-22.33-7.8224zm14.614 28.841c-8.4772-1.0135-24.318 4.959-9.588 10.998-2.0181 10.978-22.526 1.1044-28.368 4.1352 15.203 12.617-9.509 6.752-13.604 12.069 1.2842 5.8721 6.6023 11.232 7.5239 17.283 2.1792-5.7119-1.686-21.061 8.2424-10.437 9.885 6.8451 3.6904-17.003 16.862-14.634 8.912 4.5132 12.779 1.2606 15.233-8.1079 7.0542-15.681 21.805 12.047 32.638 0.29076 7.1609-1.9145 19.095 2.6512 12.389 10.572 3.3917 3.5543 30.281 12.214 21.096 5.3394-9.7944-7.9652-19.163-16.548-29.22-24.101-9.7202-0.10802-18.971 3.2838-28.216-3.1669l-2.1922-0.17862-2.7957-0.0632zm59.881 5.1302c-7.4315 5.8772 13.068 12.34 15.331 19.891 7.355-0.84594 11.057-11.884 20.321-4.9121 16.651 2.0608 9.4232 23.469 16.234 34.164 12.291 8.672-1.6664-20.513 11.572-13.836 13.229-1.2366 8.0594-10.602-0.6381-14.312-11.516-6.8735-26.283-21.096-40.489-11.49-7.1435-3.4913-13.921-9.2276-22.332-9.5053zm72.641 12.373c-1.9167 3.5903-1.905 7.7608 0 0zm-273.97 14.571c-10.232 2.9851-25.085 23.335-4.7458 19.207 9.8343 8.6012-8.5833 14.194-0.81542 23.99-0.37608 11.327-27.951 20.524-7.8519 30.39 8.571 7.4311-7.3784 15.595 1.5578 23.929-5.982 7.1744-2.2558 17.343 8.0186 12.023 12.093-3.1747-4.7019 16.471 10.204 18.305 11.62 3.3515 28.329 6.7943 26.551-10.61 0.5555-3.8723-6.3076-15.684 2.6051-7.6631 7.9182 8.4728 10.976-14.674 15.288-1.2585 11.455 5.1386 17.138-10.525 14.674-18.176 8.0208-3.355 14.92-8.2234 4.4906-14.535-4.5109-3.703-17.373-18.853-9.7075-5.3387 6.2628 7.0676 1.3394 12.451-6.639 12.639 4.0884 7.264 1.6607 19.866-7.6306 11.855-5.6055 5.0278-21.748-0.78435-22.331 6.251 4.2861 8.1959 8.7295 22.321-6.3383 18.157-14.944 0.29202 1.429-21.105-10.684-14.281-10.287-1.6186-13.078-11.515-6.1341-17.362 5.2335-12.686-21.622-22.867-11.677-30.401 8.0945-2.1202 20.291 7.8928 12.464-5.6867-13.133-13.201 19.861-20.608 4.7034-33.751-7.0785-2.4874-14.569 4.1995-9.7924-7.1169 0.87945-3.6161 1.4908-7.5174 3.7903-10.567zm43.067 1.4658c-2.0799 9.9883-15.5 17.048-18.667 14.528 12.35 9.2001-2.516 19.941 2.0693 29.962 11.488-0.20562 13.079 17.666 25.638 7.1162 5.9173 0.10085 23.718-3.1112 10.551-9.4028-7.1261 4.5912-14.408 3.715-14.557-6.0962-5.5083-1.6156-21.982-0.54371-8.7412-6.6823 5.2724-7.5143 11.07-18.018 3.1471-21.838-0.34167-2.5462 0.1105-5.092 0.56044-7.5875zm164.29 18.322c-3.9035 10.691-5.2089 30.301-18.976 13.917-5.3214 9.4009-18.052 20.498-30.041 26.551-13.803 4.0174-20.752-23.881-32.247-12.188-4.1668 11.37-15.848-8.0146-23.614-9.4531-8.649-3.8042-25.747-13.586-19.102 1.6151 7.2217 16.031 28.373-1.4811 33.128 13.093 3.3093 22.937 22.351-4.2478 32.541 7.0509 10.629 7.5582 25.444 12.878 36.97 4.421 8.5814-5.4274-6.3773-18.173 9.0084-17.569 16.346 4.9587 13.947-18.219 12.331-27.438zm-125.41 10.476c-2.4274-10.226-5.3727-3.4787 0 0zm-2.5435-5.9924-0.47643-1.7476 0.47643 1.7476zm199.3 7.0701c-6.0708 7.6579-12.441 3.3678-20.219 0.68977 12.516 7.8995 14.179 28.477-3.0303 30.735 3.3425 7.4939 7.4196 22.648-6.7726 22.171-13.71 10.108-15.816-9.8144-18.674-15.147 4.6402 11.509-11.042 14.968-19.661 13.349-8.7923-7.9904-12.327 7.2994-22.692 5.7076-3.5645 2.1719-16.769 10.192-7.844 8.9224-2.9478-2.3693 16.714 11 20.173-0.25276 1.1466-11.744 24.513-17.881 27.682-6.251-4.1976 15.326 14.183-6.2511 21.478 4.0546 14.095 4.9152 11.983-17.127 26.046-15.08 5.8016-6.4676-17.579-16.389 0.44309-15.744 23.897-2.2746-9.9544-15.679 3.0698-33.154zm-52.379 66.261-1.83 0.882 1.83-0.882zm-37.42-9.7861c7.2644-7.1915-5.5459-3.5235 0 0zm14.399-8.4066c1.6568-6.1841-3.463-3.928 0 0zm106.53 7.0701c-0.75802 10.044-19.485 14.007-5.4773 21.673-9.1468 10.161-21.509 3.4034-25.24-7.5864-12.144-5.794-4.3228 3.1179-7.7855 10.059-6.0498 4.3974-16.251-4.7778-9.0021 7.2921 2.5914 15.108-28.627-8.2349-27.314 9.3656 4.7839 8.4307-17.615 15.511-13.99 0.9657 5.07-15.352-17.573-5.3092-23.483-15.907-12.745-3.0701 5.511 12.118-3.2235 18.12-7.424 18.888-20.363-17.322-27.784-3.673 4.5965 13.741-28.914 15.12-17.388 2.3775-5.9729-6.5586-31.282 7.1824-14.472 7.1765 1.1269 12.535 20.111 6.2115 29.079 3.9711 9.9409-13.108 12.919 13.848 23.434 0.74626 11.844-3.978 24.65-26.322 33.084-5.4368 13.465 18.808 25.996-19.733 38.909-3.963 6.022-4.829 11.023-27.324 20.914-13.619 12.649 4.0626 30.7-2.743 33.768-16.436 0.61438-5.5644-3.8264-9.7077-4.0266-15.125zm-182.75 47.939c-5.0792-1.2749-10.154 0.31723-2.0582 0.38521l2.0582-0.38521zm-7.3719-0.51733c-3.765-4.8129 7.8707-23.515-4.7313-18.077-0.1323 12.062-13.757 1.2031-11.843-5.4444-12.076-14.736-17.01 27.661-19.862 6.2582-1.0254-6.4318 6.0084-24.301-3.4113-11.793-9.623 9.7849 1.0191 36.871 13.104 19.43 13.167-11.91 11.482 19.327 26.744 9.6263zm-48.629-6.4235c-0.15699 5.4583 6.0353 15.476-4.1817 11.855-6.2645-2.5022-17.44-4.9089-6.9712 3.2469 12.001 5.2952-16.078 6.3712-21.315 7.7362-10.595 1.5877-3.5488-19.57-11.69-5.2506-3.3569 14.858-18.489-6.0693-17.015-1.9781-0.94523 6.0012-6.3461 7.6092 2.6297 8.101 10.359 5.3904 15.617 18.946 27.017 5.7025 10.753-9.7865 33.284 5.9989 37.088-13.376 13.653-2.2628 0.14236-11.174-5.5613-16.037z" fill="url(#d)"/>
  <path d="m352.1 645.22c-3.492-2.0252-8.4496 7.3718-11.852 5.8537-4.6647-2.0813-7.5503-13.81-10.177-4.3448-0.59287 2.3821-1.19 4.9628-2.8453 6.8546-3.4488 3.9415-0.49886 6.405-0.99155 10.347s-6.4173 18.23-8.8808 24.142 5.4011 6.8854 7.3719 8.3634 2.9685 5.4319 1.9831 8.8808-2.4758 3.4365-5.4319 8.3634 2.4943 10.821 1.5089 14.27-4.9331 5.4319-4.4404 8.8808 0 23.649 3.4488 24.142-4.9146 41.392-8.3635 42.378-15.797-13.321-15.304-16.77 3.4735-5.9061 0.51733-12.804-1.4781-6.8792 0-10.821 6.3804-8.3634 2.9315-11.812-3.9169-2.9562-2.9315-6.8977 2.95-6.405-0.99154-10.347-0.49271-16.776 0-21.21 5.8877-8.3758 6.3804-10.347-5.9062-3.9292-9.355-4.9146 0-11.837 0-15.778 1.9831-9.8292 1.9831-9.8292-0.49884 11.954 2.4573 8.9975 8.8623-12.933 9.355-16.382c0 0 10.438 3.0922 4.0098-1.9401-5.7138-4.4729-4.1943-10.738-7.4234-11.408-3.2965-0.68355-11.281 4.2176-11.198-1.5988 0.053-3.6834-6.8421 4.9104-10.839 7.1152-7.992 4.4081-6.7833-1.9533-10-1.6402-3.341 2.4951 3.2644 12.246 7.8604 16.025 1.9764 1.6248 7.415 1.9831 7.415 1.9831s-0.49269 7.8831 0 10.347 1.9769-1.6687 0.99155 1.7801-5.9123 8.8623-3.4488 12.804 1.9708 29.075 0 32.031-4.9577 65.054-4.9577 65.054-6.3742-15.778-5.3888-19.227-5.4258-17.743-7.8892-18.236-3.4673-9.3427-2.9746-10.821-1.4658-8.8808-4.9146-12.33-7.8954-13.783-8.8808-18.71-4.9331-10.353-4.4404-14.787-0.98539-15.754-3.4488-18.71-8.3635-7.415-8.3635-7.415-3.5684 8.5096-0.77625-8.276c-1.8045 10.332 3.8692-8.2234-1.1048-6.2408-2.4764 0.98706-2.2824 4.7113-5.5762 3.9929-3.2323-0.70495-9.9679-5.8686-10.846-3.301-1.0144 2.9647 6.9268 5.8756 7.181 6.0663 5.9123 4.4342 5.7032-4.5648 0.77625 3.3183s4.4219 10.864 11.812 14.313 3.455 9.3427 0.99155 14.27 0.98539 14.787 6.8977 18.236-1.4596 6.9162-3.9231 20.219-3.96 35.967-6.4235 41.386c-0.7619 1.6762-4.2229 15.234-8.4928 32.505 5.6876 34.954-0.0601 68.764 17.632 104.92l142.38 2.6913 24.16-168.91c1.0884-9.673-6.6151-17.871-1.3795-28.539 6.2942-9.1777-4.2457-13.485 2.1124-29.962 1.9986-2.6304 4.4197-6.6665 0-11.166-2.7801-5.0588-6.0654-10.077-0.73288-16.037 6.1978-6.6535 4.7791-11.021 2.9315-15.261l-9.0963 6.5528-9.3981-2.9315s-4.8961 8.3819-5.3888 11.338-0.48653 13.29 0.99155 18.71-4.4712 8.887-9.3981 16.77-1.9523 19.683-0.47421 23.625 1.9769 14.3 0.99154 19.227-15.778 43.843-15.778 43.843l-18.71 14.787s-14.307-8.4004-13.321-14.313-0.48037-9.3304 1.9831-12.287 3.4488-5.4504 3.4488-11.855c0-6.405-5.4196-15.766-6.8977-20.693s-0.51116-8.85 0.47421-10.821 4.465-7.8954 4.9577-12.33-3.4488-7.8892-3.4488-7.8892 6.9038-7.8584 7.8892-9.8292-3.9539-8.8746-5.4319-11.338 1.9585-7.8831 4.9146-13.795 4.9331-7.8831 4.4404-10.347-1.4719-9.3612 0.99154-13.795c2.132-3.8376 6.0912-3.6352 6.1648-6.3804z" fill="url(#e)"/>
  <path d="m398.14 785.48s-0.56326-19.047 3.5134-32.042c4.1151-13.117 12.866-20.199 11.816-23.7-2.0903-6.9677-6.9677-18.813-3.4839-19.51s7.6645-4.1806 8.3613-8.3613-2.0903-13.239 3.4839-16.723 2.0903-7.6645 4.8774-16.026 2.0903-20.903 8.3613-22.297 11.845 4.8774 9.058 6.271-3.4839 11.845-3.4839 18.116-1.3936 11.148-5.5742 12.542-4.1806 11.845-4.1806 11.845 1.3935 4.1806-1.3935 4.8774 4.8774 5.5742 6.9677 11.148 7.6645 10.452 2.7871 13.239-16.026 6.9677-16.026 6.9677 1.3935-2.7871 3.4839 3.4839-0.69678 6.271-4.1806 9.058-5.5742 19.51-4.1806 27.174 0.69676 3.4839 4.8774 9.058 2.0903 9.7548-1.3935 11.845-4.8774-3.4839-3.4839 7.6645 0.69676 6.271 1.3935 18.116 3.4839 9.058-2.7871 13.239-6.2709 6.9677-6.2709 12.542 4.1806 2.0903 2.0903 9.058-11.148 11.148 0 6.9677 17.419-13.935 20.206-20.903 9.058-10.452 18.813-12.542 12.542-3.4839 11.845 1.3935-2.0903 2.7871-10.452 7.6645-9.7548 3.4839-7.6645 6.9677 4.8774 5.5742-0.69678 7.6645-7.6645 1.3936-6.9677 8.3613 8.3613 9.7548-0.69678 10.452-11.845-2.7871-14.632 4.1806 3.4839 3.4839-3.4839 9.7548-2.0903 1.3935-11.845 6.9677-9.058-2.7871-9.058 7.6645 0 10.452-4.1806 13.239-22.993 2.7871-22.993 2.7871z" fill="#666"/>
  <path d="m395.69 865.92s7.3904-10.347 7.3904-13.303 1.4781-10.839 5.4196-12.317 6.8977-6.8977 7.8831-11.332 0.98538-11.825 2.9561-12.317 4.9269 0 5.9123-2.4635-0.98539-4.9269 0-8.8685 8.3758-6.8977 8.8685-9.3612-0.49269-4.4342 2.9562-8.3758 1.9708-4.4342 3.4488-8.8685 2.9561-5.9123 6.8977-8.8684 3.4488-4.4342 3.4488-6.8977-5.9123 0.49268-3.4488-5.9123c2.4634-6.405 10.347-14.288 12.317-16.259s1.4781 1.4781 1.9708-4.4342 5.9123-12.317 6.8977-14.781-0.98539-2.4635 2.9562-7.3904 5.9123-9.3612 8.3758-11.332 7.3904-2.9562 9.3612-0.98537 0.98538 12.81-3.4488 13.303-8.8685 3.9415-7.8831 5.9123 5.4196 4.4342 4.9269 7.3904-4.4342 4.4342-4.9269 6.8977 1.4781 3.4488-0.98538 6.8977-7.3904 6.405-9.8538 9.3612-2.9562 5.4196-3.9415 10.347-3.4488 3.9415-5.9123 8.3758-1.9708 5.4196-2.9561 8.8684-2.9562 1.4781-4.4342 4.4342-3.4488 2.4634-3.9415 7.3904-2.4635 11.825-5.4196 12.81-3.9416 0-7.3904 0.49269-5.9123 1.4781-4.9269 5.4196 1.9708 2.9562-0.98538 8.8685-0.98539 7.3904-4.9269 9.8538-3.4488 2.9562-4.4342 6.8977 3.9416 4.4342 0.49271 8.3758-1.9708 5.9123-5.4196 7.3904-3.9415-0.49269-3.9415 4.4342 1.9708 4.9269-0.49269 6.8977-0.98539 0.98537-6.8977 2.9561-5.9123 0.4927-5.9123 0.4927z" fill="#e6e6e6"/>
  <path d="m249.36 910.75s2.9561-19.708 2.4634-24.142 0-22.664-7.8831-31.04-18.722-18.23-21.678-22.171-2.4635-9.8538-1.9708-11.332 0.49269-2.9562-2.9562-2.9562-4.4342-6.8977-6.405-7.3904 0 8.3758-6.8977-0.49269-12.317-20.2-11.332-24.635-4.9269-5.9123-4.4342-11.332-7.8831-17.244-12.81-17.244-16.259 2.4635-17.244-1.9708 1.4781-10.839 1.4781-10.839-10.347-10.347-9.8538-14.288 4.4342-3.4488 3.9415-8.3758-8.8685-0.98539-9.8538-5.4196-2.9561-9.3611-0.98537-9.8538 1.9708 0 0.98537-6.405-5.4196-16.752-0.49269-18.23 4.9269-3.9415 3.4488-7.3904-7.3904 0.98539-9.3612-1.9708-5.4196-11.825 1.9708-14.288 11.825-1.4781 11.825-1.4781-1.9708-5.9123 3.4488-6.405 10.347 4.9269 10.347 6.8977 5.9123 5.9123 4.4342 9.3612 4.4342 2.9562 6.405 4.9269 0.98539 8.8685 3.9415 10.839 6.8977 6.405 8.8684 11.332-2.4634 8.3758-2.4634 8.3758 11.332 3.4488 14.288 8.8685 2.4635 17.244 4.9269 21.186 17.244 9.3611 19.215 11.332 3.4488 0.49269 0.98539 5.9123 0.49268 9.3612 2.4634 12.81 3.4488 1.4781 2.4635 5.9123 6.8977 11.825 5.9123 16.752-2.9562 1.9708-2.4634 6.405 8.8684 9.3611 9.3611 11.825-1.4781 5.9123-1.4781 10.347 9.3612 9.8538 11.825 13.795-0.49269 9.3612 1.4781 12.81 8.8685 11.332 11.332 17.244 8.3758 5.4196 9.3612 7.8831-10.839 5.4196-9.3612 8.8685 8.8685 2.4635 10.347 6.8977-1.9708 12.317-0.98539 18.23 6.8977 4.9269 6.8977 10.347 0.49269 17.737-5.9123 18.722c-6.405 0.98539-10.839-2.9562-14.288-4.9269s-3.4488 0.98539-7.8831 0.98539-7.8831-9.3611-5.4196-14.288z" fill="#b3b3b3"/>
  <path d="m263.65 645.69s5.9123-3.4488 4.4342-7.3904-7.8831-9.3612-12.317-9.3612-7.3904 4.4342-7.3904 8.8685 2.9562 10.839 4.4342 12.81-0.98539 10.839-0.98539 15.766 2.4635 7.3904 5.9123 9.3612-4.9269 7.3904-4.4342 9.8538 3.9415 4.4342 5.9123 6.405 4.9269 4.9269-0.49269 9.3612-16.259 15.273-13.795 19.215 4.4342 7.3904 5.9123 7.3904-1.9708 7.3904 1.9708 7.8831 9.8538 0.4927 12.81 2.9562 5.4196 15.766 4.4342 21.678-9.8538 9.8538-7.3904 16.259c2.4635 6.405 5.9123 7.3904 5.9123 7.3904s-9.8538 4.4342-9.8538 8.3758-2.4634 12.81 0.49269 16.752 0.98539 13.795 1.4781 19.708 4.9269 11.332 9.8538 15.273 0 1.9708 0.49269 5.4196 2.4635 2.9562 3.9415 4.9269 0.4927 2.9562-0.49269 5.4196-1.4781 13.303 1.9708 18.722 6.405 13.303 4.4342 19.708-2.4635 13.303 0.49269 19.215 1.4781 8.3758 8.3758 11.332 18.23 2.9562 22.664-0.98538 15.273-13.303 14.781-19.215-2.4635-37.937-6.8977-39.908-10.839-6.8977-9.3612-13.795 12.81-17.737 12.317-22.171-2.4635-16.752-3.9415-20.2 3.4488-1.4781 0.49269-10.347-9.3611-7.8831-7.8831-15.273 4.4342-10.347 0-13.795-9.3612 0-11.825-2.9562-0.49269-10.839 2.9562-14.288 0-7.8831-1.4781-10.839 4.9269 0.98538 4.4342-8.8685-2.9561-18.722-6.405-19.215-6.405-2.9561-6.405-2.9561c0.49269-5.4196 5.9123-10.839-0.49269-13.795-6.405-2.9562-13.795-5.9123-11.332-8.8685s1.9708-12.317 0.98539-14.288-1.3634-1.9542-1.3634-1.9542-1.5927 0.96882-0.60732-3.9581-2.9562-9.8538-5.9123-10.839-14.781-8.8685-10.347-10.839-0.49269-3.9415-0.49269-3.9415z" fill="#999"/>
  <path d="m309.47 901.39s23.649-41.879 26.605-45.82-1.9708-12.317-3.9415-17.244 11.825-23.649 11.825-23.649l-7.8831-13.795s-3.9415-1.4781-3.9415-4.4342 6.405-2.9561 8.3758-2.9561 5.4196 5.9123 5.4196 0.49269-0.98539-17.737-0.98539-17.737-1.9708-2.4635-4.9269-2.4635 0.98539-3.4488 0-5.9123-7.3904-5.4196-10.839-5.4196-8.8685 1.9708-8.8685 1.9708-2.4635-4.9269 0.98538-9.3612 0.98539-11.825 1.4781-15.766-2.4635-4.9269 2.9562-10.839 5.4196-6.405 5.9123-10.347 0.98539-7.8831-2.9562-8.8684-7.3904-1.9708-4.4342-7.8831 0.49269-7.3904 5.9123-13.795c5.4196-6.405 2.4635-10.839 5.4196-14.781s4.4342-0.98539 10.347-2.4635 0-2.4635 2.4635-8.3758-2.4635-4.9269 1.4781-12.81 5.4196-6.405 7.3904-8.8684 2.4635-1.4781-2.4634-10.347 1.9708-19.708 8.3758-20.693 9.8538-0.49269 9.3611-3.4488-4.4342-3.4488-7.8831-8.8685 3.9416-8.8684 4.4342-13.795-5.4196 0.98538 0.49269-7.8831 9.3612-9.3612 12.81-7.8831 5.4196 4.4342 9.3612 6.8977 6.8977 0.49269 7.8831 5.4196-1.9708 11.332-4.9269 14.288-4.9269 7.8831-4.9269 9.8538-3.4488 7.8831-6.8977 13.795-6.405 10.839-4.4342 13.795 7.8831-2.9562 9.3612-0.98539-5.9123 17.737-4.4342 20.693 5.4196-1.9708 5.9123 4.9269-2.4635 18.722-1.9708 21.678 2.9561 1.9708 1.4781 7.8831-8.8685 12.81-6.405 20.693 5.9123 7.8831 6.405 18.23-0.98537 13.795-2.9561 23.157-6.8977 11.332 0 15.273 8.3758 4.9269 7.3904 9.8538-3.4488 10.839 1.9708 20.693 10.347 11.825 12.81 16.752 0.49269 9.3612-0.4927 20.2 1.4781 13.303-3.9415 17.737-8.3758 13.303-10.347 20.2-0.98539 9.3612-1.4781 15.273-6.8977 13.795-7.8831 20.2 3.4488 0.98538-1.9708 9.3612-2.9561 13.303-12.317 13.795-10.839-1.9708-17.737-3.4488 8.8685-1.9708-11.332 2.4635-25.62 8.8685-27.098-1.4781-6.8977-17.737-3.9415-23.157z" fill="#666"/>
  <path d="m387.67 578.52c-3.4838 1.0452-7.2857 0.0186-7.2857 2.4573s1.75 4.1747 3.492 4.8715 1.3644 2.7952-1.4226 3.492-2.0739-3.4944-5.9062 1.0347-6.6204 6.2836-4.1817 7.3288 2.7987 0.66876 3.1471 2.7591 1.0276 6.2732 1.7244 8.3634-2.4597 7.6761 2.0693 3.1471 8.0256-10.106 7.3288-12.545-2.0612-0.70138 1.4226-3.8368 4.8505-2.4153 6.9408-6.5959 4.522-5.9388 0.68977-6.9839-8.0186-3.492-8.0186-3.492zm-14.27 37.636c-3.1355 0.69676-3.4744 0.33787-5.2164 1.0346s-4.1887 0.69087-3.492 4.8715 3.8544 4.5382 2.1124 7.6737-3.4815 4.2038-4.5266 6.2942-3.8322 3.104 0 3.104 8.7013-0.35298 9.3981-3.8368 2.0949-5.1989 3.8368-6.9408 3.4488-0.69787 3.4488-4.1817-5.5613-8.0186-5.5613-8.0186zm4.5697 19.831c-1.2009 0.12319-2.1525 0.86079-2.4573 3.1471-0.69676 5.2258 2.4166 6.2941-2.1124 6.2941s-6.251 1.3795-6.251 1.3795c-2.0903 0-9.4342 0.70488-10.131 3.492s-2.0903 4.1642 0 5.9061 9.0847 1.7791 5.9493 4.9146-4.9076 2.7742-5.6044 5.5613-3.1285 5.2129-0.68976 5.5613 6.2801-0.32978 7.6737 2.4573 6.251 4.1817 6.251 4.1817 4e-3 0.32738-0.34489 2.0693-3.8228 0.3554-5.2164-0.68977-10.117-5.5613-11.511-5.5613-3.119-0.35189-5.9061 0.34488-6.9478-0.69568-6.251 4.1817 4.868 4.1537 5.2164 6.9408-2.4293 1.7756-5.2164 5.2595-5.242 2.0739-6.9839 5.9062-8.381 6.9594-6.639 9.3981 0.3856 1.75 4.9146 3.492 7.3032 1.3946 5.5613 4.1817-7.654 3.1436-1.0346 3.492 5.207-3.139 10.433 0.34488 6.9933 4.5161 1.7675 5.5613-15.718 1.4202-17.46 5.9492-0.67226 2.7707-2.4142 5.9062-2.7987-0.0124-3.1471 5.5613 2.7812 6.2696 4.8715 8.7083 3.1285 3.4814 0.68977 4.5266-4.501 0.36348-2.7591 2.8022 2.7812 1.4086 4.8715 2.8022 8.3459 6.2405 10.088 7.2857 0.72347 4.1876 5.9493-0.68977 3.7983-2.4549 7.6306-6.9839 5.9318-6.2394 7.6737-3.104 4.882 1.0428 3.8368 4.5266-4.1771 1.3946-0.34488 4.1817c2.026 1.4735 4.6298 2.7265 6.8977 3.7075-7.9776-0.87932-15.733-0.48833-18.063 1.5089-2.4387 2.0903-5.8886 6.2872-7.6306 6.9839s-5.2304 4.5091-3.8368 6.251 12.549 8.7234 12.2 11.511 2.4387 2.7742 0 5.5613-7.0025 1.764-9.4412 2.1124-5.5718 1.7034-4.5266 3.7937 8.3926 3.8449 9.7861 7.3288 3.1355 2.7777 0 5.2164-10.131-0.3473-10.131 4.1817-1.0276 9.7546-1.7244 12.89-4.5266 3.1471-4.5266 3.1471-0.028 2.0914 2.7591 4.1817 5.9493-3e-3 5.9493 4.5266 1.0266 6.625-2.4573 8.0186-5.2199-0.70967-4.8715 5.5613 3.1296 10.11 4.8715 12.2 2.4597 1.3795-2.0693 1.3795-5.9504-2.0798-10.131-1.0347-6.5854-1.3855-7.6306 3.492c-0.011 0.0505-0.0331 0.0821-0.0432 0.12926-0.25746-0.19639-0.586-0.41468-1.0778-0.73288-5.9226-3.8322-6.5889-6.618-7.2857-8.7083-0.60969-1.829-4.2192-4.7446-3.88-4.7422-2.1576-0.97912-6.4416-2.4545-8.967-0.56043-4.1806 3.1355-6.265 0.69677-4.8715 0s10.376-5.475 11.769-5.475-0.67117 3.4839 1.7675 0-1.0697-10.124 2.4142-10.821 2.4689 0.70728 5.6044-1.0346 1.0778-9.1826 1.0778-9.1826 2.4177-2.7672 2.0693-6.251 1.4181-10.092-2.4142-13.925-3.4162-4.7643-2.3711-6.8546 2.4538-2.0949 2.8022-3.8368-0.0257-6.9734-1.7675-8.0186-8.3413-5.9142-6.251-9.3981 2.0658-2.4153 2.4142-6.5959 1.0592-8.3634-1.3795-8.3634-8.0081 3.4442-9.0532-0.38799-4.1631-2.4083-1.7244-7.2857 1.8246-15.427 0.43111-16.123-5.4214 0.31227-6.4666-0.73288-0.38799-3.3195-0.38799-3.3195 3.8281 1.3732 1.6382-1.3364c0 0 3.1231-0.44573 5.5182-0.90533 5.5187-1.059 2.0577-18.48-1.0778-19.874s1.6441 6.7964-3.2333 4.0093-0.409-2.4724 1.6813-5.2595 1.3795-5.5613 1.3795-5.5613-0.35297 0.35188-3.8368-0.34488-8.9053-0.63264-6.4666-2.0262 2.8383-2.9827 3.5351-6.4666c1.4937-15.544-6.4348-2.1581-7.1564-2.4573-4.1836-1.7347-0.98214 3.139-6.2079-0.34488s-5.2094-5.2549-5.9062-1.4226 2.7545 4.875-1.0778 4.5266-2.0949-3.4804-3.8368-0.34488-8.7083 2.8022-8.7083 2.8022-1.362-4e-3 -3.104 0.34489-4.2027 4.868-2.1124 5.2164 7.6877 0.0291 6.2941 1.4226-2.8173 2.7591-5.6044 2.7591-5.5508-4.508-6.5959-2.0693-3.1285 4.8645-0.68977 5.5613 6.9408 1.0346 6.9408 1.0346l9.0532-0.68977s1.7465-3.8403 3.8368-3.492 3.4814 1.3981 4.5266 3.8368 1.404 4.9076-1.0347 5.6044-1.7616 4.8564-6.639 2.0693-7.6306-2.8022-7.6306-2.8022-5.5998 1.4192-1.7675 1.7675 9.0893 0.70488 9.7861 3.492-0.3729 3.8088 2.4142 6.5959 2.7777 2.8138 5.2164 5.9493 4.2108 2.4223 5.6044 5.9061 6.264 3.8263 0.68977 4.8715-6.6215-1.4076-8.3634 1.3795-4.903 2.4363-1.7675 4.5266 4.2213 1.757 4.5697 2.8022 5.2223 3.1401 0.34488 3.8368-5.9388-0.71428-6.9839 1.7244-1.404 2.4433 1.0347 3.8368 3.1541-2.0647 2.4573 1.7675-1.0452 4.1782 0 4.5266 1.0357 2.4317 5.2164 0.68977 5.9318-2.7766 7.6737-1.0347 4.5185 7.6481 1.0346 5.9062-4.8866-2.0693-7.6737-2.0693-4.8715 0.31688-4.8715 3.104-1.0392 1.7605-4.8715 2.4573-4.861-1.4146-5.9062 2.0693-1.3935 5.2525 0 5.9492 5.5508-0.028 6.5959 2.7591-0.015 3.8624-2.8022 5.6044-4.8389 4.1642-3.7937 5.9062 2.4398 2.8022 4.1817 2.8022 5.9178-3.1355 9.0532 0 5.9062 3.8368 5.9062 3.8368-1.0498 2.0553-3.8368 3.4488-6.2836-0.34029-7.3288 3.492 1.0532 8.7374 3.492 10.131 8.0466-1.4216 5.2595 2.7591-4.5371 1.736-3.492 4.8715 4.1677 4.2143 5.5613 5.2595-2.1089 10.419-2.4573 11.812-0.68627 2.4654-1.0346 5.9493 2.0984 3.4744 3.492 5.2164 3.1215 3.1261 1.3795 5.2164-1.397 4.8901 0.34488 7.3288 3.1587 2.7952 6.2942 3.492 3.4884 3.8263 3.8368 4.8715 1.3644 3.478-1.4226 4.8715-3.8263 2.7882-4.8715 4.1817-5.2339 4.8901-3.492 7.3288 12.89 10.433 12.89 10.433 1.7756 4.1747 5.2595 4.8715c3.4071 0.68143 8.1497-0.63165 11.942-0.68977l0.94843 5.2164 50.87-8.3634s16.706-6.9594 18.796-9.3981 6.9839-12.869 6.9839-14.959c0-0.59101-0.33337-1.9494-0.73288-3.492 2.7871 0 5.2595-4.5266 5.2595-4.5266s-0.3729-7e-3 2.4142 0.68977 1.7686 1.7524 5.9493-1.0346 1.0288-4.8715 5.9062-4.8715 4.1898 1.7023 7.6737-0.388 4.4975-3.119 3.104-5.9062-4.508-4.1607-2.0693-6.251 4.8936-3.1471 6.9839-3.1471 3.1261 1.383 5.2164 1.0346 3.478 1.7524 4.8715-1.0346 4.1852-2.0844 3.8368-4.8715-0.71888-2.7882-2.1124-4.1817-5.2083-1.0498-1.7244-3.8368 3.1226-2.0949 5.5613-3.8368 3.8508-2.1019 2.4573-3.1471-3.1576 3.16-2.1124-2.4142 2.4433-7.3288 3.8368-7.3288-0.32629 1.3795 2.1124 1.3795 1.736 1.4076 4.8715-1.3795 6.2475-3.8193 6.5959-5.5613 0.34488-3.1471 0.34488-3.1471c-1.3935 0.34839-2.7812 3.485-4.8715 4.1817s-4.5021-0.34489-6.9408-0.34489-2.4468-0.71778-3.492 2.0693-4.1677 4.5627-5.5613 5.2595-2.8197 2.4037-1.0778 3.4488 2.0903 4.2178 0 4.9146-4.1747 0.69436-4.8715 4.5266 1.7338 5.5613-3.492 5.5613-2.0704-4.1841-6.251 0.34489-5.9317 4.1677-7.6737 5.5613-5.5473 2.8092-6.9408 2.1124 0.67467-0.3775-2.1124-1.4226-3.4674-4.5185-5.9062-1.0346-5.9247 6.639-8.3634 6.639-3.1506 0.34947-2.8022 4.1817c0.17683 1.9451-0.61491 4.9338-1.6382 7.803-0.74728-1.5817-6.9867-14.854-5.3457-16.166 1.7419-1.3935 1.7616-1.3946 6.639-4.1817s6.251-2.0809 6.251-5.2164-3.1261-6.9804-5.2164-7.3288-1.362-6.639-3.104-6.639-3.1727 0.34138-4.9146 0.68977 1.7675-4.8715 1.7675-4.8715 2.7637-3.4769 6.5959-0.68977 1.4167 6.9793 6.2941 3.1471 6.2475-7.3008 6.5959-10.088 0.028-8.3634-2.7591-8.3634-2.8022-6.9839-2.8022-6.9839 0.0141-11.166-1.3795-11.166 0.3217 4.8844-5.9492-0.68977-1.0522-6.5959 0.68976-6.5959 3.5095-5.9388 1.7675-6.9839-6.2731-6.5959-8.3634-6.5959-1.7489-3.1436 0.68977-3.492 4.1747 3.1099 4.8715-1.7675-0.68977-11.467-0.68977-11.467-5.9247-5.2595-8.3634-5.2595c1.1877-0.13997 4.12-0.93273 3.4057-4.7422-1.0452-5.5742 0.16292-10.81-3.8368-11.855-2.567-0.67077 5.9318-0.35647 7.6737-3.492s0.0291-4.5382 1.4226-7.6737-0.47422-10.735-0.47422-10.735-4.3728-15.132-6.8115-15.132 3.4162-2.4398 2.3711-4.1817-5.5532-4.5557-2.0693-5.9493 10.362-2.5443 6.251-4.8715c-3.4301-1.9416 0.76789-5.228-2.716-8.3635s-1.2141-7.8647-0.51733-10.303 3.8264-2.0774 4.8715-5.5613 1.7314-7.6888 1.0346-10.476-1.4016-0.68035-3.492-5.9062-5.7337-5.6882-5.7337-10.217 1.7489-7.3288-0.68977-7.3288c-1.3718 0-3.2844-0.89134-4.8284-0.73288zm61.993 16.382c-1.7419 0.34839-2.4468 0.35299-3.492 3.8368s2.0938 2.103-0.34489 7.3288-3.8298 3.1447-4.5266 7.6737-1.4262 6.2766-1.0778 8.0186 3.492 1.0346 3.492 1.0346 3.4955-4e-3 3.1471-3.8368-1.0487-4.8796 0.34488-8.3634 1.376-1.0288 1.7244-5.9062 0.0361-4.5452 0.73288-6.9839 0-2.8022 0-2.8022zm-174.47 6.251c-1.6622-0.15174-1.864 2.5971-2.1986 5.2595-0.69676 4.8774 5.2595 6.9839 5.2595 6.9839l-1.4226 3.1471s-1.397 1.3515 0.34489 4.1386 3.8348 5.8861 0.34488 5.6044c-0.71973-0.0581-5.8805-4.1876-4.1386 0.68977s4.5045 6.9769 2.4142 7.6737-1.3795 3.492-1.3795 3.492 1.362 2.4142 3.104 2.4142 1.0568-0.33329 3.1471 2.8022 3.5106 2.4317 5.9493 0.68977 7.2811-4.5126 3.4488-5.9062-8.014-3.1366-4.1817-4.1817 4.9111-1.4016 5.2595-3.492 1.7384-5.242 0.34489-6.9839-4.2062-3.1296-1.7675-4.8715 0.0571-4.3833-1.3364-5.7768-1.7966-3.9662-3.1902-3.9662-2.4282 2.765-1.0346-2.1124c1.0452-3.6581-0.10484-2.0196-0.68977-1.7675-2.3997 1.0344-3.7155-0.28096-4.9577-1.552-1.5143-1.5494-2.564-2.2159-3.3195-2.2849zm-114.85 3.8368c-0.95535 0.0138-1.8459 0.12678-2.6298 0.38799-4.1806 1.3935-5.6033 3.464-1.4226 6.251s2.1135 3.499 6.2941 2.8022 9.0532 6.251 9.0532 6.251l-7.6737 4.9146s-3.4839 6.9699 0 8.3634 7.6667 2.0844 8.3634 4.8715-6.251 7.6306-6.251 7.6306l2.0693 4.9146 7.6737 4.8715s4.1887-0.68868 3.492 3.492-5.5904 8.3564-6.9839 9.0532-6.251 0.70486-6.251 3.492 4.1386 5.5613 4.1386 5.5613l2.1124 3.492 2.0693 12.545-5.5613 5.5613 7.6737 1.3795s9.7371-6.244 14.614-6.9408 2.1124-8.3634 2.1124-8.3634l7.6737-2.1124s-0.028 5.5985 2.7591 10.476 2.1113 4.1537-2.0693 6.9408-3.513 4.8645-1.4226 5.5613 9.0893 8.3786 9.7861 11.166 3.4908 3.478-0.68977 4.8715-6.9839-0.68868-6.9839 3.492 4.8645 8.3424 5.5613 10.433-0.68977 13.968-0.68977 13.968 1.3876 0.69787 4.8715 4.1817 2.7893-2.0914 8.3634-4.1817 6.9839 1.3806 6.9839 5.5613 0.69677-2.8 0 5.5613 2.0634 15.333 6.9408 16.727 0.72698 6.2801 5.6044 7.6737 6.9419 2.0984 11.123 3.492 7.6807 1.3666 6.9839 6.9408-0.71888 2.7963-2.1124 7.6737-2.0903 6.2882 0 11.166 7.6737 9.0473 7.6737 13.925-2.0833 7.6527-0.68977 9.743 7.6737 8.3634 7.6737 8.3634 2.7602 3.4768 6.9408 0.68977 12.552-16.699 11.855-19.486-0.69896-8.3785-8.3634-11.166-9.0532-11.123-9.0532-11.123 1.4226-2.1065 1.4226-6.9839-10.476-16.727-10.476-16.727-15.339-6.2602-11.855-13.925 1.4016-7.6538 3.492-13.925 0.71779-12.538-2.0693-13.235-4.1828-6.2812-8.3634-11.855-6.3012-4.8656-5.6044-9.743 6.2861-4.9087 2.8022-9.7861-1.3806-4.8505-5.5613-6.9408-4.8785-4.9087-4.1817-9.7861 2.772-6.244-2.8022-6.9408c-2.2906-0.28633-4.9236-1.4952-7.2426-2.8453 0.87318 1.719 1.7549 3.6876 2.0693 5.2595 0.69676 3.4839-1.0428 2.1054-4.5266 2.8022s-3.478 3.8298-4.8715 4.5266c0 0 1.273 3.5513 2.4142 6.3804 0.9647 0.61508 1.6535 1.4188 1.7675 2.6729 0.16432 1.8076-0.7487-0.14709-1.7675-2.6729-1.9832-1.2644-5.1763-1.7463-7.2857-3.6213-3.1355-2.7871-0.68976-2.4153-0.68976-6.5959s1.7255-3.8368 5.9061-3.8368 2.0984-0.35297 3.492-3.8368c0.45828-1.1457 0.74201-1.9976 0.94843-2.716-2.0202-1.36-3.4488-2.5004-3.4488-2.5004l1.3795-7.6737c1.3936-7.6645-2.7672-11.834-6.251-13.925s-0.71297-2.0914-6.9839-4.1817-4.1817-6.251-4.1817-6.251l-2.7591-6.2941s-2.8162-4.8866-1.4226-7.6737 9.058-1.3876 0-4.8715-11.138-6.2661-13.925-9.0532-6.9769-5.5694-7.6737-9.0532-4.1817-3.492-4.1817-3.492-5.0428-1.825-9.1826-1.7675zm21.9 42.205c1.2248 0 3.9443 1.3795 6.1217 1.3795 3.4839 0 0.66876 2.0785 2.7591 9.743s2.1124 2.7893 2.1124 8.3634-0.0141 2.1135 1.3795 6.2941-3.492 4.8715-3.492 4.8715l-2.0693-4.1817-4.8715-2.1124 3.492-10.433s-3.5141-7.6748-5.6044-11.855c-0.78387-1.5677-0.56244-2.0693 0.17244-2.0693zm246.12 10.907c-0.57361 0.14289-0.7773 0.92742-0.64666 3.0177 0.34839 5.5742 0.66067 5.214-0.73288 9.743s-3.4478 8.3728 0.73288 3.1471 3.1016-5.9458 7.6306-6.2942 1.7651 1.7454 6.2941-0.34488 5.9166-1.0498 4.8715-3.8368-4.8715-4.8715-4.8715-4.8715c-2.4387 0.69678-2.4514 0.68977-7.3288 0.68977-3.0484 0-4.9932-1.4884-5.9493-1.2502zm6.639 21.469-4.8715 3.8368c-1.7419 0.34839-2.7777 1.0428-5.2164 4.5266s-8.7188 3.8414-7.6737 7.6737 4.8715 2.4223 4.8715 5.9062 0.028 8.0116-2.7591 8.7083-6.639 3.492-6.639 3.492l1.7244 4.5266 3.1471-2.7591s1.764 0.32389 2.1124 2.4142 2.4352 9.4237 0.34488 11.166-6.6285 3.8333-7.6737 4.1817-1.3795 2.4398-1.3795 4.1817-1.0592 1.736 1.3795 4.8715 3.8474 3.1121 2.8022 6.5959-1.7605 7.6597-2.4573 9.0532 0.67575 3.8695 2.0693 4.9146 2.4608 3.1121 2.1124 6.5959-3.8368 14.27-3.8368 14.27l3.8368 3.492s9.0532-12.873 9.0532-14.614 2.4352-12.883 0.34489-13.58-5.2013-3.8334-2.4142-4.1817 4.1817-3.8519 4.1817-6.639-0.0257-7.6562-1.7675-9.3981-0.68977-5.5613-0.68977-5.5613 3.8263 3.4698 4.8715 1.3795 4.5546-2.7777 1.7675-5.2164-4.5557-4.5452-5.9492-6.9839-1.0452-4.8726 0-9.0532 2.8162-14.64 1.4226-16.382-2.4748-3.8123-0.73288-6.251 3.5106-4.8971 5.9493-6.639 2.0693-4.5266 2.0693-4.5266zm-51.345 49.663h3.7075s2.7444 1.3794 6.4235 2.7591 4.5843 1.825 2.2849 2.2849-3.1899-2.7595-5.9493 1.3795 1.8255 7.3862-3.2333 7.8461-5.5179-0.94843-8.2772-0.94843-7.3719 0.94843-7.3719 0.94843 0.94803-8.7658 5.087-9.2257 7.3288-5.0439 7.3288-5.0439zm-68.201 3.2333c1.3581 0.0647 1.8968 1.5949 2.9315 3.6644 1.3797 2.7593 4.11 5.058 3.1902 8.2772s-1.8247-0.44531-5.0439-2.2849-3.2333 0.90532-3.2333 0.90532 0.47434 5.0723-0.90533 8.7514-2.759 3.6499-4.1386 4.5697-5.0439 2.328-5.0439 2.328l-6.4666 3.6644 1.8538-1.8538s-1.8538-3.2042-1.8538-6.4235 4.5978-2.7589 11.036-4.1386-1.3508-4.5981-1.8106-8.2772 1.3791-1.825 5.5182-2.2849c0 0-0.47448-5.0869 2.2849-6.4666 0.68984-0.34492 1.2286-0.45266 1.6813-0.4311zm-5.1733 78.634c0.63235-0.0144 1.1783 0 1.6382 0h7.8461s-0.93397 0.45962-1.8538 2.7591-4.124 3.6787-6.4235 4.1386-4.5982-2.7448-6.8977-2.2849-0.91964 3.2184-1.3795 8.2772-3.7075 2.2849-3.7075 2.2849l0.47422-7.3719s2.7733-5.9779 4.6128-6.8977c1.3797-0.68984 3.7936-0.86221 5.6906-0.90532zm23.409 10.002c0.01-0.0124 0.0519-0.011 0.12927 0-6e-3 0.0268 6e-3 0.0589 0 0.0862-0.10181-0.0574-0.13946-0.0737-0.12927-0.0862z" fill="#808080"/>
  <path d="m256.69 910.2s-9.058-11.148-9.7548-14.632 1.4389-9.4476-3.488-10.926-8.8685-8.3758-8.8685-11.332-1.4781-11.332-6.405-12.317-8.8685-7.8831-11.825-7.3904-7.3904-0.4927-8.3758-2.4635-6.405-12.317-8.3758-15.273-11.825-10.347-15.273-12.81-2.9562-4.4342-6.8977-4.9269-8.3758-0.49268-9.8538-1.9708-0.98537-4.9269-4.4342-5.4196-10.839-2.4635-12.317-3.4488 1.9708-2.4635-6.8977-3.9416-9.8538 5.4196-12.81 3.4488-7.8831-13.303-7.8831-13.303-1.4781 3.9415-5.4196 3.4488-5.9123-5.9123-5.9123-5.9123l-3.9415 3.9416s-2.9562-4.4342-4.9269-6.8977-11.825-1.4781-15.766-7.3904-4.4342-7.3904-6.405-7.3904-13.795 4.4342-14.781 1.4781 0.4927-7.8831 5.4196-7.8831 8.8685 4.4342 11.825 4.9269-1.4781 1.4781 3.9416 0.49269 2.4635 0 8.3758 2.4635 4.9269 5.4196 6.8977 1.4781 4.9269 0.98538 4.9269 0.98538 5.4196-2.9562 8.3758-0.49269 2.4635 5.9123 8.3758 6.405 3.9415-2.9562 10.839-0.98539 2.4635 3.9415 6.405 5.4196-0.49269 0.98539 5.4196 1.9708 7.8831 8.8685 10.839 11.332-1.9708 0 4.9269 2.4634 10.839 5.4196 10.839 5.4196 3.9415 0.49269 6.8977 1.4781 3.9415 6.405 3.9415 6.405h8.3758s2.4635 3.9415 5.4196 5.9123 1.9708 7.8831 7.3904 9.8538 8.8685 1.9708 9.8538 6.405 0.49269 6.8977 3.9415 8.8684-2.9562-1.9708 6.8977 2.9562 16.752 14.781 17.244 17.244-1.4781 0.98538 3.9415 5.4196 5.4196 0.49269 6.8977 8.8685-4.4342 2.9562 2.4635 9.8538 5.9123-0.49269 8.3758 9.8538-3.4488 6.405 3.9415 13.303 9.3612 4.4342 6.8977 8.3758-4.4342 7.8831-6.8977 5.9123-4.4342-6.405-9.8538-10.347-2.5234-8.9306-2.5234-8.9306z" fill="#e6e6e6"/>
  <path d="m286.13 905.82s5.9786 11.037 9.1978 10.577 12.877-5.0588 12.877-5.0588-0.91978-7.3582-1.3797-9.6577 10.118-7.8182 10.118-7.8182 5.0588-0.45988 4.5989 1.8396-4.139 8.278-4.139 8.278 3.6791 2.2994 5.9786 1.8396 15.176-5.9786 15.176-7.3582-2.2995-1.8396 1.3797-5.5187 5.9786-6.4385 7.8181-2.2994-2.7593 6.4385 2.7594 10.577 10.577-0.45988 11.957-2.2994 3.2192-3.2192 1.3797-4.5989-2.2994-2.2995-1.8396-5.0588 0-2.7594 3.6791-3.6791 6.4385-4.139 6.4385 1.8396-4.139 7.8181-0.91978 7.8181 9.6577-0.4599 15.636-4.5989 6.4385-4.139 8.278-3.6791 5.0588-2.7593 8.7379-5.0588 4.139-1.3797 7.8182-0.91978 2.2995 2.7593-1.8396 5.0588-6.8984-0.91978-7.8182 5.5187 1.3797 7.3582-3.2192 8.7379-3.6791-3.2192-5.0588 1.8396 0.91978 2.2995-2.7593 10.118 0 10.118-7.3582 11.497-7.8182 4.139-15.176 0.91978-9.1978-4.139-11.497-2.7594-21.615 7.3582-25.294 7.3582-25.754 0.91978-28.973-1.3797-7.8181-5.0588-11.497-8.7379-5.0588-13.337-5.0588-13.337z" fill="#666"/>
  <path d="m273.5 919.62s1.9708-25.127-0.49271-25.127-4.9269-4.9269-1.9708-9.3611 0.49268-19.215-1.9708-19.708-3.4488-1.9708-2.9562-4.9269-1.9708-12.317-4.9269-14.288-4.4342-2.9562-9.3612-6.405-7.3904-5.4196-5.4196-8.8685 4.4342-4.4342 0.49269-8.8685-3.4488-5.4196-2.4635-10.839-1.4781-10.839-5.9123-13.795-4.9269-2.9562-4.9269-7.3904-5.9123-8.3758-4.4342-11.825 4.9269-4.9269 4.9269-6.8977-1.9708-7.8831-5.9123-12.317-5.4196-0.98539-3.4488-6.8977 0-7.8831-1.9708-11.332 0-1.9708-4.4342-6.8977 1.4781-2.9562-1.4781-11.825-11.825-11.825-13.795-15.273 0.98537-4.4342 2.9561-9.3612-2.9561-6.405-3.9415-13.303 1.4781-7.3904 2.4635-13.795 5.9123-8.8685 0.49268-12.81-12.317-11.825-10.347-18.722 3.4488-7.8831 6.405-7.8831 4.4342 5.4196 4.4342 8.3758 3.9415 1.4781 4.4342 4.9269-4.4342 6.8977-4.4342 6.8977 6.405 4.4342 7.3904 7.8831-0.98538 9.8538-1.9708 12.81-3.4488 4.4342 0 8.3758 0 4.4342 0 7.8831-4.4342 2.9561 0 8.3758 8.3758 5.9123 4.9269 7.8831-4.9269 2.4635 1.4781 7.8831 5.4196 3.9415 5.4196 10.839 0.49269 6.405 3.4488 9.3611 5.4196 11.332 4.9269 14.781-1.4781-1.9708 2.9562 5.4196 2.4634 8.8685 3.4488 12.317 6.405 3.9415 7.3904 7.3904-1.4781 5.9123-2.9562 9.3612-4.4342 2.4635-2.4634 7.8831-0.49269 0.98539 4.4342 5.4196 2.9562 11.332 4.9269 17.737 7.3904 3.4488 6.8977 8.8685-4.9269 4.4342-3.4488 10.347 4.9269-2.4635 10.347 5.9123 4.9269 6.405 5.9123 12.317 8.3758 8.8685 7.3904 17.244-0.98539 4.4342 0.98539 10.347 0 7.3904 0.49269 10.839 4.4342-0.49269 5.4196 5.4196 4.9269 6.8977 1.9708 11.332-0.49269 8.8685-0.49269 8.8685l4.9269 17.737-11.825-2.9562z" fill="#e6e6e6"/>
  <path d="m253.8 918.64s-9.8538-10.347-16.752-11.332-21.678-3.4488-24.635-3.4488 0 1.4781 4.9269 2.9562 21.678 5.4196 21.678 7.8831 8.8685 7.3904-6.405 1.4781-16.752-4.9269-21.678-4.9269 4.4342 1.9708 10.839 4.4342c6.405 2.4634 7.3904 4.9269 0.49269 3.9415s-22.664 0-12.317 2.4635 23.157 4.4342 25.62 8.3758 12.317 3.4488 12.317 3.4488 4.4342-6.405 9.3611-5.4196 21.678 1.9708 23.157 3.9415-1.4781 1.9708 5.9123 3.9416 30.054-4.4342 36.459-4.9269 22.664 0.49269 24.635-2.9562 9.8538-7.8831 6.405-2.4635-7.3904 5.4196-1.9708 5.9123 11.332 0.49268 11.825 2.4635-1.4781 3.4488 4.4342 2.9562 18.722-4.9269 23.649-6.8977 2.4635 0.49269 9.3612-4.9269 5.9123 2.4635 8.8685-6.8977-2.4635-0.98537-9.8538 0.4927-12.81 3.9415-6.8977-2.4635 18.23-19.708 10.347-17.244-11.332 6.8977-15.273 8.3758-12.317 6.405-13.303 7.8831-1.9708 6.405-1.9708 6.405l-2.9561 0.98539s11.332-17.244 8.8685-17.244-7.8831 2.9562-10.839 6.8977-4.9269 3.9415-7.8831 7.3904 0.98538 4.4342-0.49269-1.9708-1.4781-4.4342-4.9269-1.4781-13.795 7.8831-13.795 7.8831 4.9269-4.4342 8.3758-12.81 6.8977-14.781 1.4781-11.332-16.259 12.81-16.259 18.23-3.4488 7.8831-9.8538 8.3758-11.332 2.4635-13.795-0.98538-4.9269-1.4781-7.8831-11.825-9.3612-9.8538-7.3904-3.9416 2.4635 12.81 0.49271 14.781-6.405-5.4196-10.347-13.303-14.781-17.244-15.273-11.825 9.8538 17.244 10.839 20.693 0.49269 3.4488-2.9562 3.9416 0 7.8831-5.4196-0.98539-12.317-14.781-18.23-19.708-5.4196-10.347-5.9123-4.9269 3.4488 6.8977 8.3758 11.825 10.347 6.405 6.8977 8.3758-5.4196 6.405-10.347-0.4927z" fill="#b3b3b3"/>
  <path d="m-12.258 740.77c-3.9415 0.49269-16.259-0.98537-19.215 0s-9.8538 0.98539-8.3758 2.9562 0.49269 3.4488 5.4196 3.4488 14.781-1.9708 14.781-1.9708 0-1.4781 0.49269 1.4781 1.4781 5.4196 6.405 2.4634 2.4635-6.405 7.8831-1.9708 4.9269 0.98537 7.8831 1.9708 1.4781 5.4196 5.4196 7.3904 9.8538-1.4781 14.288-0.98537 4.4342 3.9415 9.3612 4.9269 4.4342 0 9.8538 0.49269 6.405 3.9415 10.839 2.9562 6.405-4.4342 2.4635-8.3758-10.839-8.3758-17.244-7.3904-11.332 4.4342-12.317-0.98537 0.98538-9.8538-3.4488-9.3612-6.8977 3.4488-9.3612 4.4342 0.98539 5.9123-5.4196 0.98539-3.4488-10.839-9.3612-8.8685-3.4488-0.49269-9.3612-1.4781-6.405-0.49271-4.9269 2.9561 3.9415 4.9269 3.9415 4.9269z" fill="#e6e6e6"/>
  <path d="m550.4 615.14c-4.4342 0.4927-16.259 5.4196-15.273 7.8831s-1.4781 1.9708-3.9415 4.9269-9.8538 7.8831-7.3904 9.8538-2.9562 6.8977-5.4196 7.8831-3.4488 8.8685-3.4488 8.8685-3.4488-0.49269-4.9269 3.9415-1.9708 11.825-3.9415 14.288-12.81 1.4781-5.9123 5.4196-0.98538 10.839-2.9562 11.825-10.347 6.405-7.3904 7.3904 5.4196 1.4781 7.3904-0.98539 6.405-11.825 9.3612-11.825-0.49269-1.9708-1.9708-4.9269-1.9708-2.9562 2.4635-4.4342 12.81-3.4488 13.303-9.8538 3.4488-8.3758 6.405-9.8538 2.4634-4.4342 2.4634-7.8831 2.9562-11.332 5.9123-12.317 7.8831-4.4342 11.332-4.9269 0.98539-3.4488-0.98539-2.9562 0.4927 0.98539 0.98539-1.9708-0.49269-4.9269 1.4781-7.8831 2.4634-2.4635 2.4634-2.4635z" fill="#e6e6e6"/>
  <path d="m456.29 820.1c3.4488-1.9708 8.8684-7.8831 12.81-13.795s16.259-2.9562 18.23-6.8977 3.9415-8.3758 6.405-10.839 7.3904-9.3612 11.825-11.332 2.9562 1.4781 6.8977-7.8831 6.8977-9.8538 6.8977-9.8538 9.8538-2.9562 10.347-7.3904 7.3904-1.9708 7.3904-1.9708 4.4342 0 6.8977-1.9708 16.752-11.825 16.752-11.825l5.4196 3.4488s7.8831-0.4927 10.839-3.4488 19.215-5.4196 21.186-7.3904 6.405-2.9561 13.303-4.4342 7.3904-1.9708 14.288-4.9269 3.9415-3.9415 10.839 0.49269 12.81 7.8831 6.405 8.3758-4.9269-0.98539-8.3758-3.4488-1.4781-5.4196-7.3904-0.98539-12.81 7.3904-12.81 7.3904-4.9269-3.9416-6.8977-3.4488-2.4635 2.9562-7.3904 6.8977-6.8977 3.4488-9.8538 1.9708-2.4635-3.4488-5.9123-0.49269-10.839 1.9708-13.303 6.405-5.9123 8.8685-8.3758 8.8685-6.405 0-10.347 0.98539-8.3758 0.98539-7.3904 4.4342 0 10.347-3.4488 10.347-5.9123-5.4196-9.3611-3.4488-6.405 6.405-6.405 6.405-2.9562 5.4196-7.8831 5.9123-5.9123 2.9561-5.9123 5.4196-6.405 5.4196-6.405 7.3904 1.4781 3.9415 1.4781 7.3904-0.49269 6.405-5.4196 6.8977-9.3612 5.4196-13.795 5.9123-4.4342 0-8.3758 0.49268-4.9269-1.4781-7.3904 3.9415 1.4781 5.4196-3.4488 5.4196-3.9415-4.9269-5.9123 0.49269-3.9415 4.9269-7.3904 4.9269 0.98539-4.4342 0.98539-4.4342z" fill="#e6e6e6"/>
  <path d="m393.23 869.86s-8.8685 5.9123-10.347 8.3758-2.4634 5.9123-3.9415 9.3611-2.4635 7.8831-6.405 8.8685-5.4196 2.4635-3.9415 4.4342 1.4781 4.9269 0 7.8831-1.9708 3.9415 0 5.4196 0.98538 3.4488 4.4342 1.9708 6.8977-11.332 6.405-14.288-2.4635-3.9416 2.4634-6.405 8.8685-4.4342 7.8831-8.8684-1.4781-2.9562 1.9708-6.405 0.98539-2.9562 3.9416-7.8831-2.4635-2.4634-2.4635-2.4634z" fill="#e6e6e6"/>
 </g>
</svg>
