<?xml version="1.0" encoding="UTF-8"?>
<svg viewBox="0 0 135.55 135.51" xmlns="http://www.w3.org/2000/svg">
 <path d="m135.55 67.732c0 34.533-27.088 64.336-61.504 67.5-34.428 3.165-66.644-21.045-72.942-55.092-6.297-34.04 14.95-68.33 48.31-77.686 33.372-9.357 69.43 8.813 81.738 41.207 2.915 7.673 4.398 15.864 4.398 24.071" fill="#004c99"/>
 <g fill="#005fbf">
  <path d="m130.76 68.732c0 34.33-28.665 62.995-62.995 62.995-34.331 0-62.995-28.665-62.995-62.995 0-34.331 28.664-62.995 62.995-62.995 34.33 0 62.995 28.664 62.995 62.995"/>
  <path d="m124.68 43.246c5.089 29.667-12.629 59.468-41.123 69.176-30.22 10.297-64.225-4.923-76.863-34.193 6.073 35.425 42.497 58.713 77.203 49.347 35.831-9.671 55.552-50.162 40.783-84.33"/>
  <path d="m107.1 39.768c-8.712 1.802-18.743-10.54-26.297-13.679-14.114-5.867-31.741-3.143-44.526 4.846-13.523 8.449-23.141 24.68-24.622 40.611-4e-3 0.045006-5e-3 0.054001-2e-3 0.024002 0.999-9.647 0.325-18.717 3.999-28.043 6.087-15.458 19.253-27.563 35.127-32.426 16.41-5.027 34.356-1.828 48.495 7.753 4.364 2.96 21.169 18.151 7.826 20.914"/>
 </g>
 <path d="m81.825 29.781c0 12.314-2.119 25.257-4.871 37.212-1.65 7.166-8.262 26.567-15.229 11.319-5.728-12.533-6.635-27.953-7.569-41.524-0.411-5.937-1.029-11.817 4.484-15.813 7.694-5.579 23.185-2.528 23.185 8.806" fill="#005ebc"/>
 <path d="m79.002 30.239c0 10.673-1.894 21.807-3.911 32.247-0.73502 3.798-5.393 25.675-11.13 13.661-5.28-11.056-5.751-25.315-6.629-37.34-0.334-4.557-1.28-9.925 1.812-13.781 5.228-6.521 19.858-4.395 19.858 5.213" fill="#fff"/>
 <path d="m81.093 105.85c0-17.25-26.751-17.248-26.751 0 0 17.25 26.751 17.252 26.751 0" fill="#005ab5"/>
 <path d="m77.983 105.35c0-13.908-20.532-13.908-20.532 0s20.532 13.91 20.532 0" fill="#fff"/>
</svg>
