<?xml version="1.0" encoding="UTF-8"?>
<svg version="1.1" viewBox="0 0 3120 3120" xmlns="http://www.w3.org/2000/svg">
 <defs>
  <clipPath id="ce">
   <path transform="matrix(.8945 0 0 .8945 45.578 -801.45)" d="m2176 820.36a1744 1744 0 1 1 -3488 0 1744 1744 0 1 1 3488 0z" fill="#006680"/>
  </clipPath>
  <clipPath id="cf">
   <path transform="matrix(2.293 0 0 .8945 -4063 -1569.2)" d="m2176 820.36a1744 1744 0 1 1 -3488 0 1744 1744 0 1 1 3488 0z" fill="#006680"/>
  </clipPath>
  <clipPath id="cg">
   <path transform="matrix(2.293 0 0 .8945 -4012.3 -1569.2)" d="m2176 820.36a1744 1744 0 1 1 -3488 0 1744 1744 0 1 1 3488 0z" fill="#006680"/>
  </clipPath>
  <clipPath id="ch">
   <path transform="matrix(2.293 0 0 .8945 -4109.7 -1569.2)" d="m2176 820.36a1744 1744 0 1 1 -3488 0 1744 1744 0 1 1 3488 0z" fill="#006680"/>
  </clipPath>
  <clipPath id="ci">
   <path transform="matrix(2.293 0 0 .8945 33.984 -1739)" d="m2176 820.36a1744 1744 0 1 1 -3488 0 1744 1744 0 1 1 3488 0z" fill="#006680"/>
  </clipPath>
  <clipPath id="cj">
   <path transform="matrix(2.293 0 0 -.78047 -300.66 1826.1)" d="m2176 820.36a1744 1744 0 1 1 -3488 0 1744 1744 0 1 1 3488 0z" fill="#006680"/>
  </clipPath>
  <clipPath id="cl">
   <path transform="matrix(2.293 0 0 .8945 711.91 -1549.4)" d="m2176 820.36a1744 1744 0 1 1 -3488 0 1744 1744 0 1 1 3488 0z" fill="#006680"/>
  </clipPath>
  <clipPath id="cm">
   <path transform="matrix(.8945 0 0 .8945 45.578 -801.45)" d="m2176 820.36a1744 1744 0 1 1 -3488 0 1744 1744 0 1 1 3488 0z" fill="#006680"/>
  </clipPath>
  <clipPath id="cn">
   <path transform="matrix(.8945 0 0 .8945 45.578 -801.45)" d="m2176 820.36a1744 1744 0 1 1 -3488 0 1744 1744 0 1 1 3488 0z" fill="#006680"/>
  </clipPath>
  <clipPath id="co">
   <path transform="matrix(.8945 0 0 .8945 45.578 -801.45)" d="m2176 820.36a1744 1744 0 1 1 -3488 0 1744 1744 0 1 1 3488 0z" fill="#006680"/>
  </clipPath>
  <clipPath id="cp">
   <path transform="matrix(.8945 0 0 .8945 45.578 -801.45)" d="m2176 820.36a1744 1744 0 1 1 -3488 0 1744 1744 0 1 1 3488 0z" fill="#006680"/>
  </clipPath>
  <clipPath id="cq">
   <path transform="matrix(.8945 0 0 .8945 45.578 -801.45)" d="m2176 820.36a1744 1744 0 1 1 -3488 0 1744 1744 0 1 1 3488 0z" fill="#006680"/>
  </clipPath>
  <clipPath id="cr">
   <path transform="matrix(.8945 0 0 .8945 45.578 -801.45)" d="m2176 820.36a1744 1744 0 1 1 -3488 0 1744 1744 0 1 1 3488 0z" fill="#006680"/>
  </clipPath>
  <clipPath id="cs">
   <path transform="matrix(.8945 0 0 .8945 45.578 -801.45)" d="m2176 820.36a1744 1744 0 1 1 -3488 0 1744 1744 0 1 1 3488 0z" fill="#006680"/>
  </clipPath>
  <clipPath id="ct">
   <path transform="matrix(.8945 0 0 .8945 45.578 -801.45)" d="m2176 820.36a1744 1744 0 1 1 -3488 0 1744 1744 0 1 1 3488 0z" fill="#006680"/>
  </clipPath>
  <clipPath id="cu">
   <path transform="matrix(.8945 0 0 .8945 45.578 -801.45)" d="m2176 820.36a1744 1744 0 1 1 -3488 0 1744 1744 0 1 1 3488 0z" fill="#006680"/>
  </clipPath>
  <clipPath id="cv">
   <path transform="matrix(.8945 0 0 .8945 45.578 -801.45)" d="m2176 820.36a1744 1744 0 1 1 -3488 0 1744 1744 0 1 1 3488 0z" fill="#006680"/>
  </clipPath>
  <clipPath id="cw">
   <path transform="matrix(.8945 0 0 .8945 45.578 -801.45)" d="m2176 820.36a1744 1744 0 1 1 -3488 0 1744 1744 0 1 1 3488 0z" fill="#006680"/>
  </clipPath>
  <clipPath id="cx">
   <path transform="matrix(.8945 0 0 .8945 -406.54 -800.03)" d="m2176 820.36a1744 1744 0 1 1 -3488 0 1744 1744 0 1 1 3488 0z" fill="#006680"/>
  </clipPath>
  <clipPath id="cy">
   <path transform="matrix(.8945 0 0 .8945 39.921 -800.03)" d="m2176 820.36a1744 1744 0 1 1 -3488 0 1744 1744 0 1 1 3488 0z" fill="#006680"/>
  </clipPath>
  <clipPath id="cz">
   <path transform="matrix(.88079 0 0 .88079 -418.02 -768.39)" d="m2176 820.36a1744 1744 0 1 1 -3488 0 1744 1744 0 1 1 3488 0z" fill="#006680"/>
  </clipPath>
  <clipPath id="da">
   <path transform="matrix(.88079 0 0 .88079 21.148 -768.39)" d="m2176 820.36a1744 1744 0 1 1 -3488 0 1744 1744 0 1 1 3488 0z" fill="#006680"/>
  </clipPath>
  <clipPath id="db">
   <path transform="matrix(.8945 0 0 .8945 -404.85 -756.77)" d="m2176 820.36a1744 1744 0 1 1 -3488 0 1744 1744 0 1 1 3488 0z" fill="#006680"/>
  </clipPath>
  <clipPath id="dc">
   <path transform="matrix(.8945 0 0 .32445 -413.33 -339.54)" d="m2176 820.36a1744 1744 0 1 1 -3488 0 1744 1744 0 1 1 3488 0z" fill="#006680"/>
  </clipPath>
  <clipPath id="dd">
   <path transform="matrix(.8945 0 0 .8945 45.578 -756.77)" d="m2176 820.36a1744 1744 0 1 1 -3488 0 1744 1744 0 1 1 3488 0z" fill="#006680"/>
  </clipPath>
  <clipPath id="de">
   <path transform="matrix(.8945 0 0 .31749 37.8 -334.76)" d="m2176 820.36a1744 1744 0 1 1 -3488 0 1744 1744 0 1 1 3488 0z" fill="#006680"/>
  </clipPath>
  <clipPath id="df">
   <path transform="matrix(-3.9886 -.71818 -1.936 1.4796 5160.7 -615.55)" d="m2176 820.36a1744 1744 0 1 1 -3488 0 1744 1744 0 1 1 3488 0z" fill="#006680"/>
  </clipPath>
  <clipPath id="dg">
   <path transform="matrix(3.9886 .71818 -1.936 1.4796 1565.7 -1262.9)" d="m2176 820.36a1744 1744 0 1 1 -3488 0 1744 1744 0 1 1 3488 0z" fill="#006680"/>
  </clipPath>
  <clipPath id="dh">
   <path transform="matrix(.8945 0 0 .8945 421.58 -826.45)" d="m2176 820.36a1744 1744 0 1 1 -3488 0 1744 1744 0 1 1 3488 0z" fill="#006680"/>
  </clipPath>
  <clipPath id="di">
   <path transform="matrix(.8945 0 0 .8945 16.578 -826.45)" d="m2176 820.36a1744 1744 0 1 1 -3488 0 1744 1744 0 1 1 3488 0z" fill="#006680"/>
  </clipPath>
  <clipPath id="dj">
   <path transform="matrix(1.5077 0 0 -.6607 -230.7 1816.9)" d="m2176 820.36a1744 1744 0 1 1 -3488 0 1744 1744 0 1 1 3488 0z" fill="#006680"/>
  </clipPath>
  <clipPath id="dk">
   <path transform="matrix(.8945 0 0 .8945 45.578 -801.45)" d="m2176 820.36a1744 1744 0 1 1 -3488 0 1744 1744 0 1 1 3488 0z" fill="#006680"/>
  </clipPath>
  <clipPath id="bg">
   <path transform="matrix(.8945 0 0 .8945 45.578 -801.45)" d="m2176 820.36a1744 1744 0 1 1 -3488 0 1744 1744 0 1 1 3488 0z" fill="#006680"/>
  </clipPath>
  <clipPath id="bh">
   <path transform="matrix(1.41 0 0 -.72337 -184.33 1527.3)" d="m2176 820.36a1744 1744 0 1 1 -3488 0 1744 1744 0 1 1 3488 0z" fill="#006680"/>
  </clipPath>
  <clipPath id="bi">
   <path transform="matrix(.8945 0 0 .8945 45.578 -801.45)" d="m2176 820.36a1744 1744 0 1 1 -3488 0 1744 1744 0 1 1 3488 0z" fill="#006680"/>
  </clipPath>
  <clipPath id="bj">
   <path transform="matrix(.8945 0 0 .8945 45.578 -801.45)" d="m2176 820.36a1744 1744 0 1 1 -3488 0 1744 1744 0 1 1 3488 0z" fill="#006680"/>
  </clipPath>
  <clipPath id="bk">
   <path transform="matrix(.8945 0 0 .8945 45.578 -801.45)" d="m2176 820.36a1744 1744 0 1 1 -3488 0 1744 1744 0 1 1 3488 0z" fill="#006680"/>
  </clipPath>
  <clipPath id="bl">
   <path transform="matrix(.8945 0 0 .8945 45.578 -801.45)" d="m2176 820.36a1744 1744 0 1 1 -3488 0 1744 1744 0 1 1 3488 0z" fill="#006680"/>
  </clipPath>
  <clipPath id="bm">
   <path transform="matrix(.8945 0 0 .8945 45.578 -801.45)" d="m2176 820.36a1744 1744 0 1 1 -3488 0 1744 1744 0 1 1 3488 0z" fill="#006680"/>
  </clipPath>
  <clipPath id="bn">
   <path transform="matrix(.8945 0 0 .8945 45.578 -801.45)" d="m2176 820.36a1744 1744 0 1 1 -3488 0 1744 1744 0 1 1 3488 0z" fill="#006680"/>
  </clipPath>
  <clipPath id="bo">
   <path transform="matrix(.8945 0 0 .8945 45.578 -801.45)" d="m2176 820.36a1744 1744 0 1 1 -3488 0 1744 1744 0 1 1 3488 0z" fill="#006680"/>
  </clipPath>
  <clipPath id="bp">
   <path transform="matrix(2.293 0 0 .8945 -2067.7 -1739)" d="m2176 820.36a1744 1744 0 1 1 -3488 0 1744 1744 0 1 1 3488 0z" fill="#006680"/>
  </clipPath>
  <clipPath id="bq">
   <path transform="matrix(2.293 0 0 -.8945 -1666.1 2208.1)" d="m2176 820.36a1744 1744 0 1 1 -3488 0 1744 1744 0 1 1 3488 0z" fill="#006680"/>
  </clipPath>
  <clipPath id="br">
   <path transform="matrix(.8945 0 0 .8945 45.578 -801.45)" d="m2176 820.36a1744 1744 0 1 1 -3488 0 1744 1744 0 1 1 3488 0z" fill="#006680"/>
  </clipPath>
  <clipPath id="bs">
   <path transform="matrix(.8945 0 0 .8945 45.578 -801.45)" d="m2176 820.36a1744 1744 0 1 1 -3488 0 1744 1744 0 1 1 3488 0z" fill="#006680"/>
  </clipPath>
  <clipPath id="bt">
   <path transform="matrix(.8945 0 0 .8945 45.578 -801.45)" d="m2176 820.36a1744 1744 0 1 1 -3488 0 1744 1744 0 1 1 3488 0z" fill="#006680"/>
  </clipPath>
  <clipPath id="bu">
   <path transform="matrix(.91482 0 0 .4597 -54.181 -792.68)" d="m2176 820.36a1744 1744 0 1 1 -3488 0 1744 1744 0 1 1 3488 0z" fill="#006680"/>
  </clipPath>
  <clipPath id="bv">
   <path transform="matrix(.8945 0 0 .8945 45.578 -801.45)" d="m2176 820.36a1744 1744 0 1 1 -3488 0 1744 1744 0 1 1 3488 0z" fill="#006680"/>
  </clipPath>
  <clipPath id="bw">
   <path transform="matrix(.8945 0 0 .8945 45.578 -801.45)" d="m2176 820.36a1744 1744 0 1 1 -3488 0 1744 1744 0 1 1 3488 0z" fill="#006680"/>
  </clipPath>
  <clipPath id="bx">
   <path transform="matrix(.79305 0 0 .79305 93.017 -561.93)" d="m2176 820.36a1744 1744 0 1 1 -3488 0 1744 1744 0 1 1 3488 0z" fill="#006680"/>
  </clipPath>
  <clipPath id="by">
   <path transform="matrix(2.293 0 0 -.8945 -3484.3 2129.1)" d="m2176 820.36a1744 1744 0 1 1 -3488 0 1744 1744 0 1 1 3488 0z" fill="#006680"/>
  </clipPath>
  <clipPath id="bz">
   <path transform="matrix(2.293 0 0 .8945 -3198.5 -1758)" d="m2176 820.36a1744 1744 0 1 1 -3488 0 1744 1744 0 1 1 3488 0z" fill="#006680"/>
  </clipPath>
  <clipPath id="ca">
   <path transform="matrix(2.293 0 0 .8945 -2584.1 -1922)" d="m2176 820.36a1744 1744 0 1 1 -3488 0 1744 1744 0 1 1 3488 0z" fill="#006680"/>
  </clipPath>
  <clipPath id="cb">
   <path transform="matrix(2.293 0 0 -.8945 319.88 2029.1)" d="m2176 820.36a1744 1744 0 1 1 -3488 0 1744 1744 0 1 1 3488 0z" fill="#006680"/>
  </clipPath>
  <clipPath id="cc">
   <path transform="matrix(2.293 0 0 .8945 -1263.9 -1739)" d="m2176 820.36a1744 1744 0 1 1 -3488 0 1744 1744 0 1 1 3488 0z" fill="#006680"/>
  </clipPath>
  <clipPath id="cd">
   <path transform="matrix(.8945 0 0 .8945 45.578 -801.45)" d="m2176 820.36a1744 1744 0 1 1 -3488 0 1744 1744 0 1 1 3488 0z" fill="#006680"/>
  </clipPath>
  <clipPath id="ck">
   <path transform="matrix(2.293 0 0 .8945 -554.43 -1831.4)" d="m2176 820.36a1744 1744 0 1 1 -3488 0 1744 1744 0 1 1 3488 0z" fill="#006680"/>
  </clipPath>
  <clipPath id="dl">
   <path d="m2176 820.36a1744 1744 0 1 1 -3488 0 1744 1744 0 1 1 3488 0z" fill="#006680"/>
  </clipPath>
 </defs>
 <g transform="translate(1128 1627.6)">
  <path transform="matrix(.8945 0 0 .8945 45.578 -801.45)" d="m2176 820.36c0 963.18-780.82 1744-1744 1744s-1744-780.82-1744-1744 780.82-1744 1744-1744 1744 780.82 1744 1744z" clip-path="url(#dl)" fill="#006680"/>
  <path transform="matrix(.3901 0 0 1 261.86 1030)" d="m-1016.8 573.45 198.39-343.63 198.39-343.63 198.39 343.63 198.39 343.63-396.79-1e-5z" clip-path="url(#ck)" fill="#fff"/>
  <path d="m-55.785 634.19 97.394 417.33 85.394 417.33 77.394-417.33 77.394-417.33-154.79 1e-5z" clip-path="url(#cd)" fill="#fff"/>
  <path transform="matrix(.3901 0 0 1 538.61 937.5)" d="m-1016.8 573.45 198.39-343.63 198.39-343.63 198.39 343.63 198.39 343.63-396.79-1e-5z" clip-path="url(#cc)" fill="#e6e6e6"/>
  <path transform="matrix(.3901 0 0 -1 -79.208 1227.6)" d="m-1016.8 573.45 198.39-343.63 198.39-343.63 198.39 343.63 198.39 343.63-396.79-1e-5z" clip-path="url(#cb)" fill="#f2f2f2"/>
  <path transform="matrix(.3901 0 0 1 1053.7 1120.5)" d="m-1016.8 573.45 198.39-343.63 198.39-343.63 198.39 343.63 198.39 343.63-396.79-1e-5z" clip-path="url(#ca)" fill="#fff"/>
  <path transform="matrix(.3901 0 0 1 1293.3 956.5)" d="m-1016.8 573.45 198.39-343.63 198.39-343.63 198.39 343.63 198.39 343.63-396.79-1e-5z" clip-path="url(#bz)" fill="#e6e6e6"/>
  <path transform="matrix(.3901 0 0 -1 1404.8 1327.6)" d="m-1016.8 591.12 249.66-361.31 219.45-360.63 210.66 360.63 198.39 361.31-481.38-1e-5z" clip-path="url(#by)" fill="#f2f2f2"/>
  <path transform="matrix(1.1279 0 0 1.1279 -59.337 -167.63)" d="m1301.1 735.58c0 115.6-374.83 209.3-837.21 209.3s-837.21-93.708-837.21-209.3 374.83-209.3 837.21-209.3 837.21 93.708 837.21 209.3z" clip-path="url(#bx)" fill="#fff"/>
  <path d="m736 724.7 97.394 417.33 85.394 417.33 77.394-417.33 77.394-417.33-154.79 1e-5z" clip-path="url(#bw)" fill="#fff"/>
  <path d="m949-189.64 6 208.23 38 174.2 41 287.16 27 182.37-33 370.18 10 284.44-106-4.0829-139 23.136-24 50.356 49-368.82 42-194.62 26-435.51-10-551.19z" clip-path="url(#bv)" fill="#f4e3d7"/>
  <path transform="matrix(.97778 0 0 1.9458 98.555 740.95)" d="m1125.7-667.32c0 140.59-341.91 254.56-763.68 254.56s-763.68-113.97-763.68-254.56 341.91-254.56 763.68-254.56 763.68 113.97 763.68 254.56z" clip-path="url(#bu)" fill="#f4e3d7"/>
  <path d="m450-483.08v1239.1c-251.22-118.27-369.71-307.35-448.57-517.57v-721.48z" clip-path="url(#bt)" fill="#fca"/>
  <path d="m530 724.7 97.394 393.83 85.394 393.83 77.394-393.83 77.394-393.83-154.79 1e-5z" clip-path="url(#bs)" fill="#fff"/>
  <path d="m448.04-483.08v1239.1c251.22-118.27 369.71-307.35 448.57-517.57v-721.48z" clip-path="url(#br)" fill="#fca"/>
  <path transform="matrix(.3901 0 0 -1 695.54 1406.6)" d="m-1016.8 573.45 198.39-343.63 198.39-343.63 198.39 343.63 198.39 343.63-396.79-1e-5z" clip-path="url(#bq)" fill="#b3b3b3"/>
  <path transform="matrix(.3901 0 0 1 852.18 937.5)" d="m-1016.8 573.45 198.39-343.63 198.39-343.63 198.39 343.63 198.39 343.63-396.79-1e-5z" clip-path="url(#bp)" fill="#e6e6e6"/>
  <path d="m870-335.64v539.43l-169.96 272.1h-23.158l-118.88 52.469-47 8v-38l51-22 36-52h-149.43v649.71l241.56-24.583 158.39-523.21 84.853-212.13v-649.65z" clip-path="url(#bo)" fill="#333"/>
  <path d="m-55.785 898.19 97.394 417.33 85.394 417.33 77.394-417.33 77.394-417.33-154.79 1e-5z" clip-path="url(#bn)" fill="#fff"/>
  <path d="m27.14-335.64v539.43l169.96 272.1h23.158l118.88 52.469 47 8v-38l-51-22-36-52h149.43v649.68l-241.56-21.583-158.39-526.19-84.853-212.13v-649.65z" clip-path="url(#bm)" fill="#333"/>
  <path d="m672.04 357.48h-445.11l84.221-93.245c13.048 9.8327 26.86 10.691 41.808 0 15.378-18.55 31.384-25.318 56.926 0h0.04s0.18493-0.0175 0.19246 0c17.458 40.643 56.316 45.143 74.875 0h0.0775-0.0539c19.416-26.47 39.345-16.59 52.382 0h0.0443c14.76 11.452 27.526 14.251 45.261 0h0.82107z" clip-path="url(#bl)" fill="#333"/>
  <path d="m409.57-138.34v318.66h-56.569" clip-path="url(#bk)" fill="#ffb380"/>
  <path d="m492-137.45v318.66h56.569" clip-path="url(#bj)" fill="#ffb380"/>
  <path d="m448.57 346.86-55.071-18.75-103.63 18.75-37.125 37.125h394.26l-37.562-37.562c-36.309-6.125-61.968-11-101.26-18.312z" clip-path="url(#bi)" fill="#ffb380"/>
  <path transform="matrix(.6344 0 0 -1.2366 162.52 1087.2)" d="m144.25 569.41c0-28.508 138.66-51.619 309.71-51.619s309.71 23.111 309.71 51.619h-309.71z" clip-path="url(#bh)" fill="#f95"/>
  <path d="m227.38 356.86-16.75 72.75-12.478 46.568h23.978l30-119.32z" clip-path="url(#bg)" fill="#333"/>
  <path d="m671.65 356.86 16.75 72.75 12.478 46.568h-23.978l-30-119.32z" clip-path="url(#dk)" fill="#333"/>
  <path transform="matrix(.59327 0 0 -1.3539 182.45 1658.3)" d="m260.81 756.77 93.881-162.61 93.881-162.61 93.881 162.61 93.881 162.61-187.76-2e-5z" clip-path="url(#dj)" fill="#fff"/>
  <path transform="translate(29,25)" d="m482-261.14c0-15.74 63.799-28.5 142.5-28.5s142.5 12.76 142.5 28.5h-142.5z" clip-path="url(#di)" fill="#333"/>
  <path transform="translate(-376,25)" d="m482-261.14c0-15.74 63.799-28.5 142.5-28.5s142.5 12.76 142.5 28.5h-142.5z" clip-path="url(#dh)" fill="#333"/>
  <path transform="matrix(.1815 -.088097 .23748 .48927 61.3 -45.632)" d="m482-261.14c0-15.74 63.799-28.5 142.5-28.5s142.5 12.76 142.5 28.5h-142.5z" clip-path="url(#dg)" fill="#333"/>
  <path transform="matrix(-.1815 -.088097 -.23748 .48927 836.09 -45.632)" d="m482-261.14c0-15.74 63.799-28.5 142.5-28.5s142.5 12.76 142.5 28.5h-142.5z" clip-path="url(#df)" fill="#333"/>
  <path transform="matrix(1 0 0 2.8174 7.7782 141.69)" d="m322.44-95.802c0 11.423-46.3 20.683-103.41 20.683s-103.41-9.26-103.41-20.683 46.3-20.683 103.41-20.683 103.41 9.26 103.41 20.683z" clip-path="url(#de)" fill="#ffb380"/>
  <path transform="translate(0 -44.678)" d="m332.34-98.808c0 25.384-46.696 45.962-104.3 45.962s-104.3-20.578-104.3-45.962 46.696-45.962 104.3-45.962 104.3 20.578 104.3 45.962z" clip-path="url(#dd)" fill="#fff"/>
  <path transform="matrix(1 0 0 2.7569 458.91 134.65)" d="m322.44-95.802c0 11.423-46.3 20.683-103.41 20.683s-103.41-9.26-103.41-20.683 46.3-20.683 103.41-20.683 103.41 9.26 103.41 20.683z" clip-path="url(#dc)" fill="#ffb380"/>
  <path transform="translate(450.43 -44.678)" d="m332.34-98.808c0 25.384-46.696 45.962-104.3 45.962s-104.3-20.578-104.3-45.962 46.696-45.962 104.3-45.962 104.3 20.578 104.3 45.962z" clip-path="url(#db)" fill="#fff"/>
  <path transform="matrix(1.0156 0 0 1.0156 24.101 -21.099)" d="m246.07-120.9c0 25.091-20.34 45.432-45.432 45.432-25.091 0-45.432-20.34-45.432-45.432 0-25.091 20.34-45.432 45.432-45.432 25.091 0 45.432 20.34 45.432 45.432z" clip-path="url(#da)"/>
  <path transform="matrix(1.0156 0 0 1.0156 470.1 -21.099)" d="m246.07-120.9c0 25.091-20.34 45.432-45.432 45.432-25.091 0-45.432-20.34-45.432-45.432 0-25.091 20.34-45.432 45.432-45.432 25.091 0 45.432 20.34 45.432 45.432z" clip-path="url(#cz)"/>
  <path transform="translate(5.6569 -1.4142)" d="m239.36-156.61c0 4.1981-3.4033 7.6014-7.6014 7.6014s-7.6014-3.4033-7.6014-7.6014 3.4033-7.6014 7.6014-7.6014 7.6014 3.4033 7.6014 7.6014z" clip-path="url(#cy)" fill="#fff"/>
  <path transform="translate(452.12 -1.4142)" d="m239.36-156.61c0 4.1981-3.4033 7.6014-7.6014 7.6014s-7.6014-3.4033-7.6014-7.6014 3.4033-7.6014 7.6014-7.6014 7.6014 3.4033 7.6014 7.6014z" clip-path="url(#cx)" fill="#fff"/>
  <rect x="-36.25" y="-483.33" width="63.25" height="148.94" clip-path="url(#cw)" fill="#333"/>
  <rect x="869.75" y="-483.33" width="63.25" height="148.94" clip-path="url(#cv)" fill="#333"/>
  <path d="m449.57-439.14h-147.78l-76.626 15-124.01 38-119.98 63-21.173 27v-189.5h489.57z" clip-path="url(#cu)" fill="#f4e3d7"/>
  <path d="m448.5-439.14h149.13l77.328 15 125.15 38 121.08 63 21.367 27v-189.5h-494.06z" clip-path="url(#ct)" fill="#f4e3d7"/>
  <path d="m448.57-439.14h-146.32l-78.25 15.25-121.75 38-122.25 63.25-16.5 22.25v119.25" clip-path="url(#cs)" fill="none" stroke="#e9c6af" stroke-width="6"/>
  <path d="m451.4-439.14h146.32l78.25 15.25 121.75 38 122.25 63.25 16.5 22.25v119.25" clip-path="url(#cr)" fill="none" stroke="#e9c6af" stroke-width="6"/>
  <path d="m154.86-405.69 205.06-118.09 159.1-30.406 89.095-28.284 152.74-7.0711 140.01 44.548 150.61-2.1213 83.439 125.87 14.142 43.841" clip-path="url(#cq)" fill="none" stroke="#e9c6af" stroke-width="6"/>
  <path d="m656-582.64 230 69 87 56 106 65 25 74" clip-path="url(#cp)" fill="none" stroke="#e9c6af" stroke-width="6"/>
  <path d="m498-552.64 235 61 216 105 51 83-1 84" clip-path="url(#co)" fill="none" stroke="#e9c6af" stroke-width="6"/>
  <path d="m-258.94-416.29 148.65-109.42 83.994-51.729 52.003-21.521s81.361-34.956 84.633-35.315c3.2722-0.35843 28.944-10.588 28.944-10.588" clip-path="url(#cn)" fill="none" stroke="#e9c6af" stroke-width="7.1958"/>
  <path d="m-289-499.64 67-45 25-9 21-11 44-15 48-26" clip-path="url(#cm)" fill="none" stroke="#e9c6af" stroke-width="6"/>
  <path transform="matrix(.3901 0 0 1 -232.14 748)" d="m-1016.8 573.45 198.39-343.63 198.39-343.63 198.39 343.63 198.39 343.63-396.79-1e-5z" clip-path="url(#cl)" fill="#fff"/>
  <path transform="matrix(.3901 0 0 -1.1461 162.86 1291.4)" d="m-1088.6 573.45 249.66-343.63 218.9-343.63 198.39 343.63 198.39 343.63-396.79-1e-5z" clip-path="url(#cj)" fill="#fff"/>
  <path transform="matrix(.3901 0 0 1 32.321 937.5)" d="m-1016.8 573.45 198.39-343.63 198.39-343.63 198.39 343.63 198.39 343.63-396.79-1e-5z" clip-path="url(#ci)" fill="#e6e6e6"/>
  <path transform="matrix(.3901 0 0 1 1648.8 767.8)" d="m-1016.8 573.45 198.39-343.63 198.39-343.63 198.39 343.63 198.39 343.63-396.79-1e-5z" clip-path="url(#ch)" fill="#fff"/>
  <path transform="matrix(.3901 0 0 1 1610.8 767.8)" d="m-1016.8 573.45 198.39-343.63 198.39-343.63 198.39 343.63 198.39 343.63-396.79-1e-5z" clip-path="url(#cg)" fill="#fff"/>
  <path transform="matrix(.3901 0 0 1 1630.6 767.8)" d="m-1016.8 573.45 198.39-343.63 198.39-343.63 198.39 343.63 198.39 343.63-396.79-1e-5z" clip-path="url(#cf)" fill="#fff"/>
  <rect x="-1458.8" y="-1855.6" width="1907.4" height="3732" clip-path="url(#ce)" fill="#fff" opacity=".25514"/>
  <path transform="translate(-6.8943 18.385)" d="m563.56-160.68 18.432-14.511 22.586-15.483-9.3755 28.933 1.4962 24.426-15.067-9.5611z" fill="#fff"/>
  <path d="m349.19-142.29-18.432-14.511-22.586-15.483 9.3755 28.933-1.4962 24.426 15.067-9.5611z" fill="#fff"/>
 </g>
</svg>
