<?xml version="1.0" encoding="UTF-8"?>
<svg width="358.57" height="561.13" version="1.1" viewBox="0 0 358.57047 561.12919" xmlns="http://www.w3.org/2000/svg">
 <g transform="translate(-146.36 -380.19)">
  <path d="m207.02 555.93c100.54-61.053 196.47-36.777 211.43-28.571-78.17-3.9817-156.27 6.7294-222.14 58.571 1.1436-8.7041 1.6663-16.905 10.714-30z" fill="#b7c7de"/>
  <path d="m163.45 471.64c-1.7627-7.745-11.093-4.5583 2.8571-35 52.792-53.831 288.41-65.517 319.29-20 13.443 13.326 12.271 27.626-2.8571 42.857 15.665 14.911 24.119 45.474-7.8571 61.429 14.791 18.938 16.27 33.64-10.714 39.286-2.0196 32.235-2.4699 49.255-35 54.286 5.8238 32.601-13.804 44.65-22.857 50 8.78 14.359 28.617 13.321-0.71429 43.571 33.988 7.2702 46.328 24.089 22.857 43.571 15.242 5.2446 34.376 19.916 20 41.429 26.701 16.448 15.886 31.424-3.5714 35.714-0.38806 4.6119 1.007 11.007-2.8571 12.143 8.3791 17.943-16.224 27.387-26.429 27.857l-3.5714 5.7143c-10.792 29.749-15.442 22.654-22.857 32.143-8.8418 13.23-1.5172 18.378 0 26.429-9.0286-5.081-21.047-3.6846-19.286-32.143-8.3496-7.5649-19.279-14.098 9.2857-36.429-5.3879-17.194 13.358-23.249 32.143-29.286-13.703-11.859-12.143-26.493-5-42.143-19.354-11.054-44.801-0.75964-43.571-40.714-2.6652-12.404-62.342 8.1572-66.429-66.429-11.801 2.8862-55.442-0.60141-30.714-37.857-17.911-14.473-51.029-5.0503-45-57.143-7.9017-7.5353-38.625 14.958-14.286-35 0.37172-5.6505-55.916 9.8444-17.143-52.143-24.266-1.2974-47.98-2.9263-25.714-32.143z" fill="#929eb4" stroke="#555771" stroke-linejoin="round" stroke-width="16.5"/>
  <path d="m368.81 747.72c19.274-15.106 33.163-25.273 64.643-25.357-28.57-5.075-46.421 0.3502-69.286 20z" fill="#6a737a"/>
  <path d="m322.03 728.42c41.296-58.044 84.643-45.714 84.643-45.714s-45.28-17.536-96.433 33.929c3.0952 3.0904 6.1905 6.5678 9.2857 11.428z" fill="#69717c"/>
  <path d="m297.02 684.85c51.339-49.583 99.286-44.643 99.286-44.643-83.939-16.613-125.82 33.44-125.71 33.571 2.9362 0.42548 12.426 11.733 34.286 5.7143z" fill="#77808f"/>
  <path d="m256.04 634.14c25.843-24.71 58.188-32.501 104.56-34.211-25.446-8.4584-117.93 13.387-125 25.192 5.4628 3.3646 9.1012 7.2131 20.443 9.019z" fill="#77808f"/>
  <path d="m172.19 471.64c46.784-41.513 118.73-56.371 201.97-47.857-31.087-12.221-107.6-22.664-206.09 28.571-1.2212 9.6716 0.78361 15.305 4.108 19.286z" fill="#b7c8df"/>
  <path d="m183.81 539.5c65.63-68.927 227.5-61.429 227.5-61.429-9.4926 4.4259-65.466-37.084-215.78 27.857-4.3856 10.694-11.452 18.61-11.72 33.571z" fill="#bbd5f0"/>
  <path d="m163.81 489.85c106.6-98.19 319.61-38.86 318.57-12.85-85.16-54.36-292.74-20.76-318.57 12.85z" fill="#b7c7de"/>
  <path d="m196.19 545.93c17.318-19.214 48.107-21.187 72.979-27.864-24.886 1.5988-47.384-4.0705-84.286 25.305 4.8054 2.1281 7.3762 2.7199 11.307 2.5589z" fill="#767f8e"/>
  <path d="m229.17 415.21c-12.408 13.19-3.13 6.5536 0.71429 10.715-3.0872 5.7143-17.806 11.429 3.5714 17.143-17.824 15.805-17.889 23.718-1.4286 24.286-0.73736 5.4868-14.5 16.985 7.1428 12.143-7.8403 11.667-13.391 23.333 5 35-1.2709 6.5728-13.484 16.565 13.571 14.286-10.091 15.522-27.186 33.898 12.143 29.286-24.767 51.4-1.6208 45.762 11.429 52.143-2.8702 10.008-8.3144 21.56 16.429 15-4.4278 9.009-23.346 17.112 0 27.857-1.6319 10.861-9.6644 26.345 21.429 13.571-8.9987 15.519-15.512 29.692 3.5714 30-1.4286 18.571 5.7143 27.619 21.429 27.143 3.757 3.6695 3.0815 9.8718 19.286 6.4286 2.2628 3.4787-6.7795 8.2136 10.714 10 1.2868 8.5522-11.026 19.824 7.1429 25 0.80122 6.7049-3.3462 17.259 13.571 11.429 0.56657 9.7011 10.104 8.637 20 7.1428-7.619 18.571-6.6667 33.333 2.8571 44.286l-7.1429 12.143c-8.2787 0.76888-16.716 1.3797-15.714 11.429-14.224 3.0186-13.225 10.604-8.5714 19.286-8.7269 3.4354-20.126 4.5327-14.286 20.714l2.1428 26.429c2.304-8.6203 0.48831-24.107 7.8572-24.286-2.5335-19.989 8.9955-14.665 15-19.286-0.61454-6.7768-6.2112-14.661 9.2857-17.857 0.0687-12.72 8.3442-9.0259 13.571-11.429 10.058-4.6691 11.093-13.205 7.8571-23.571-10.872-5.7544-3.5423-20.61 0-33.571-6.1116-7.7104 4.5152-23.146-23.571-20.714-1.2115-6.0247-6.6632-10.636-19.286-12.857 18.039-14.122 5.8501-22.909-7.8571-31.429-6.9048-14.319-13.81-18.297-20.714-13.571 5.4112-10.682 7.8828-21.192-18.571-30 8.9754-10.476 22.688-20.952-5-31.429 2.6892-20.291 3.2303-38.22-12.857-37.857 7.6915-32.174-11.021-14.473-18.571-17.857 8.1923-7.4711 5.3454-13.716-3.5714-19.286 20.352-10.353 82.455-21.414-1.4286-30 32.713-12.514 40.767-25.589-10-40 28.249-12.056 63.136-23.958 12.143-37.857 30.94-8.2385 24.649-17.718-1.4286-27.857 27.798-8.9219 21.287-21.656 15.714-34.286l11.429-5.0004c-35.254 1.1748-65.58 6.2061-93.215 15z" fill="#c3d5e9"/>
  <path d="m452.02 572.35c-112.09-44.865-232.28 14.306-222.9 17.857-0.87028 7.008-1.3673 12.646-1.3802 21.429 55.864-32.461 115.07-60.174 224.28-39.286z" fill="#bcd6f1"/>
  <path d="m416.01 401.34c26.111 10.561 33.02 49.134 3.5714 41.429 73.968 47.844 0 70 0 70 40.56 22.204 50.702 39.675 5.7143 48.571 17.872 37.066-11.334 44.172-33.571 55.714 5.0368 17.893 6.9899 35.948-23.571 55.714 23.951 3.99 40.437 11.021 13.571 35.714 17.946 8.8081 45.874 12.127 27.857 40.714 19.062 9.794 30.611 21.9 25 39.286 11.319 15.822 19.561 30.961-2.8571 39.286 3.8443 23.452-8.0203 32.622-25 37.143-4.5487 11.404-6.4785 25.426-20 27.857-17.656 8.956-13.347 15.716-12.857 22.857l8.0664 17.013c-4.0568-16.477-1.623-26.257 9.7908-31.299 8.1811-6.495 12.064-21.587 17.857-32.857-1.9266-1.6198 27.475 1.8223 27.857-25 1.1905-4.7619-0.58038-13.966 3.5714-14.286 21.118-6.2888 26.381-19.752 2.2295-35.043 13.705-16.851-4.588-39.351-20.173-41.385 31.593-29.071-9.5531-40.787-22.77-42.857 13.93-14.402 19.269-22.97 0.46175-44.372 19.558-11.729 25.753-28.723 23.11-49.199 19.873-4.218 35.124-11.615 34.877-54.286 25.378-8.3463 22.23-22.917 10.837-39.286 22.431-15.881 26.39-36.209 7.7705-62.857 34.958-42.622-33.585-58.616-59.199-59.643z" fill="#77808f"/>
  <path d="m478.1 457.71c-28.509-12.635-57.449-25.098-107.14-29.286 32.184 2.1234 53.83-8.5196 115.71 15.714-3.6173 9.8452-5.8047 9.6806-8.5714 13.571z" fill="#6a727d"/>
  <path d="m469.88 521.64c-96.206-45.104-147.09-28.784-197.86-15 129.66-20.71 164.71 11.929 207.86 40-1.9e-4 -7.5926-1.513-15.521-10-25z" fill="#69717a"/>
  <path d="m461.31 560.21c-53.883-29.432-86.875-17.083-125.71-16.429 48.861 2.15 104.16 5.0982 124.64 24.643z" fill="#667079"/>
  <path d="m455.59 594.5c-90.266-38.039-167.58-3.5966-171.43 1.4286 95.399-17.267 130.22-3.0692 159.29 11.429 6.789-2.2297 8.9433-7.9354 12.143-12.857z" fill="#616b77"/>
  <path d="m430.6 616.64c-54.667-19.446-104.84-6.1266-152.86 22.857 45.06-18.048 90.233-35.429 151.07-4.2857 2.928-4.6353 1.3935-12.246 1.7857-18.571z" fill="#68727b"/>
  <path d="m421.31 651.64c-52.177-4.3138-77.096 13.52-99.286 33.571 27.966-8.0502 55.035-25.398 88.214-16.071-11.175-5.0509 6.2-11.605 11.071-17.5z" fill="#6a727d"/>
  <path d="m415.6 695.93c-58.389 1.2513-60.733 21.184-72.857 37.857 18.89-12.112 31.186-29.424 64.286-28.214 5.1798-3.2143 5.9296-6.4286 8.5714-9.6429z" fill="#69717c"/>
  <path d="m441.67 734.85c-33.323 1.5488-48.33 19.132-64.643 33.214 17.679-6.7243 32.406-22.322 51.786-17.143z" fill="#69727b"/>
  <path d="m413.81 791.64c13.309-2.2512 7.4069-12.499 31.786 1.4286-6.4303-9.1117-3.8699-23.883-37.143-8.9286z" fill="#667079"/>
  <path d="m449.88 799.49c-12.197-1.1655-20.823 3.9176-29.286 9.2857 18.333-3.8095 31.429-2.8572 39.286 2.8571-1.6526-6.9889-4.5485-11.802-10-12.143z" fill="#6a737c"/>
  <path d="m451.31 825.93c-5.2269-6.6495-19.74-2.8521-32.143-1.4286 8.8232 2.5374 21.266 4.4715 25 7.8571-1.4286-3.5714 0.95238-5.7143 7.1429-6.4286z" fill="#6a707c"/>
  <path d="m439.17 855.93c-26.112 8.0566-36.54 1.5493-50-2.1429 6.8416 7.1928 16.637 14.158 17.5 19.643 5.3918-8.7327 22.022-11.31 32.5-17.5z" fill="#6b747d"/>
  <path d="m232.84 562.94c34.576-23.022 85.95-33.172 122.23-30.81-34.008 2.2588-82.664 12.048-122.23 30.81z" fill="#fff"/>
  <path d="m212.64 526.58c38.005-23.022 94.474-33.172 134.35-30.81-37.381 2.2588-90.862 12.048-134.35 30.81z" fill="#fff"/>
  <path d="m209.37 479.13c40.185-18.962 97.402-23.209 136.82-16.729-37.414-1.6248-91.621 2.5729-136.82 16.729z" fill="#fff"/>
  <path d="m247.99 616.48c27.432-23.022 68.192-33.172 96.975-30.81-26.982 2.2588-65.585 12.048-96.975 30.81z" fill="#fff"/>
  <path d="m268.2 661.94c25.146-23.022 62.509-33.172 88.893-30.81-24.733 2.2588-60.119 12.048-88.893 30.81z" fill="#fff"/>
 </g>
</svg>
